<?xml version="1.0" encoding="UTF-8"?>
<svg width="81px" height="81px" viewBox="0 0 81 81" version="1.1" xmlns="http://www.w3.org/2000/svg" xmlns:xlink="http://www.w3.org/1999/xlink">
    <!-- Generator: Sketch 54.1 (76490) - https://sketchapp.com -->
    <title>Co2 saved Icon@3x</title>
    <desc>Created with Sketch.</desc>
    <defs>
        <path d="M5.77125,13.1656818 C4.78635871,13.1656818 3.89582784,12.9516783 3.09963068,12.5236648 C2.30343352,12.0956513 1.67753069,11.501964 1.22190341,10.7425852 C0.766276131,9.98320643 0.538465909,9.12489115 0.538465909,8.16761364 C0.538465909,7.21033612 0.766276131,6.35202084 1.22190341,5.59264205 C1.67753069,4.83326325 2.30343352,4.239576 3.09963068,3.8115625 C3.89582784,3.383549 4.79096094,3.16954545 5.78505682,3.16954545 C6.62267464,3.16954545 7.37974094,3.31681671 8.05627841,3.61136364 C8.73281588,3.90591056 9.30119088,4.32931542 9.76142045,4.88159091 L8.32551136,6.20704545 C7.67198537,5.45226895 6.86199347,5.07488636 5.89551136,5.07488636 C5.29721292,5.07488636 4.76335462,5.20604982 4.29392045,5.46838068 C3.82448629,5.73071154 3.45860927,6.09658856 3.19627841,6.56602273 C2.93394755,7.03545689 2.80278409,7.56931519 2.80278409,8.16761364 C2.80278409,8.76591208 2.93394755,9.29977038 3.19627841,9.76920455 C3.45860927,10.2386387 3.82448629,10.6045157 4.29392045,10.8668466 C4.76335462,11.1291774 5.29721292,11.2603409 5.89551136,11.2603409 C6.86199347,11.2603409 7.67198537,10.8783561 8.32551136,10.114375 L9.76142045,11.4398295 C9.30119088,12.0013096 8.73051477,12.4293167 8.049375,12.7238636 C7.36823523,13.0184106 6.60886782,13.1656818 5.77125,13.1656818 Z" id="path-1"></path>
        <path d="M15.7397727,13.1656818 C14.7364723,13.1656818 13.8321347,12.9493772 13.026733,12.5167614 C12.2213312,12.0841456 11.5908261,11.4881572 11.1351989,10.7287784 C10.6795716,9.96939961 10.4517614,9.11568656 10.4517614,8.16761364 C10.4517614,7.21954071 10.6795716,6.36582766 11.1351989,5.60644886 C11.5908261,4.84707007 12.2213312,4.25108171 13.026733,3.81846591 C13.8321347,3.38585011 14.7364723,3.16954545 15.7397727,3.16954545 C16.7430732,3.16954545 17.6451096,3.38585011 18.4459091,3.81846591 C19.2467085,4.25108171 19.8772136,4.84707007 20.3374432,5.60644886 C20.7976728,6.36582766 21.0277841,7.21954071 21.0277841,8.16761364 C21.0277841,9.11568656 20.7976728,9.96939961 20.3374432,10.7287784 C19.8772136,11.4881572 19.2467085,12.0841456 18.4459091,12.5167614 C17.6451096,12.9493772 16.7430732,13.1656818 15.7397727,13.1656818 Z M15.7397727,11.2603409 C16.3104574,11.2603409 16.8259068,11.1291774 17.2861364,10.8668466 C17.7463659,10.6045157 18.1076407,10.2386387 18.3699716,9.76920455 C18.6323024,9.29977038 18.7634659,8.76591208 18.7634659,8.16761364 C18.7634659,7.56931519 18.6323024,7.03545689 18.3699716,6.56602273 C18.1076407,6.09658856 17.7463659,5.73071154 17.2861364,5.46838068 C16.8259068,5.20604982 16.3104574,5.07488636 15.7397727,5.07488636 C15.1690881,5.07488636 14.6536387,5.20604982 14.1934091,5.46838068 C13.7331795,5.73071154 13.3719047,6.09658856 13.1095739,6.56602273 C12.847243,7.03545689 12.7160795,7.56931519 12.7160795,8.16761364 C12.7160795,8.76591208 12.847243,9.29977038 13.1095739,9.76920455 C13.3719047,10.2386387 13.7331795,10.6045157 14.1934091,10.8668466 C14.6536387,11.1291774 15.1690881,11.2603409 15.7397727,11.2603409 Z" id="path-2"></path>
        <path d="M26.0925852,12.4596023 L26.0925852,13.5227273 L21.8320312,13.5227273 L21.8320312,12.6770597 L24.0066051,10.6232955 C24.2374869,10.4031523 24.3931956,10.2138857 24.4737358,10.0554901 C24.554276,9.89709438 24.5945455,9.74004339 24.5945455,9.58433239 C24.5945455,9.3588199 24.5180334,9.18566112 24.3650071,9.06485085 C24.2119808,8.94404059 23.987814,8.88363636 23.6925,8.88363636 C23.4455101,8.88363636 23.2226857,8.93061743 23.0240199,9.02458097 C22.8253541,9.1185445 22.6589069,9.2594877 22.5246733,9.44741477 L21.574304,8.8353125 C21.7944471,8.50778245 22.0978106,8.25140007 22.4844034,8.06615767 C22.8709963,7.88091527 23.3139606,7.78829545 23.8133097,7.78829545 C24.2321186,7.78829545 24.5985709,7.85675358 24.9126776,7.99367187 C25.2267842,8.13059017 25.4710858,8.32388369 25.6455895,8.57355824 C25.8200932,8.82323278 25.9073437,9.11720001 25.9073437,9.45546875 C25.9073437,9.76152142 25.8429126,10.0487771 25.7140483,10.3172443 C25.585184,10.5857116 25.3355132,10.8917596 24.9650284,11.2353977 L23.6683381,12.4596023 L26.0925852,12.4596023 Z" id="path-3"></path>
    </defs>
    <g id="UI-DESIGN" stroke="none" stroke-width="1" fill="none" fill-rule="evenodd">
        <g id="02.00.00---History---native" transform="translate(-269.000000, -478.000000)" fill-rule="nonzero">
            <g id="Co2-saved-Icon" transform="translate(269.000000, 478.000000)">
                <circle id="Oval" fill="#0096A7" cx="40.2721875" cy="40.1755398" r="31.859233"></circle>
                <circle id="Oval" fill="#F0EFF1" cx="40.39875" cy="40.39875" r="40.39875"></circle>
                <path d="M53.3863636,19.8196875 C53.6325368,19.5237586 53.9490138,19.2943128 54.3068182,19.152358 L55.5057102,18.5678693 C55.8761932,18.3860795 56.2834943,18.158267 56.3755398,17.7578693 C56.0846679,17.5641087 55.7287684,17.4937565 55.3860511,17.5622727 C55.0477382,17.6317097 54.721887,17.7519643 54.4195739,17.9189489 C53.8867942,18.1879461 53.3683406,18.4844248 52.8663068,18.8071875 C52.478925,19.0343478 52.1314399,19.32353 51.8376989,19.6632102 C51.5427779,20.0089031 51.4037201,20.4610494 51.4534091,20.9127273 C51.4574028,20.9689056 51.4764826,21.0229651 51.5086364,21.0692045 C51.5770104,21.1369289 51.6679495,21.1770731 51.7640625,21.1819602 C52.1345455,21.2486932 52.7604545,21.5041193 53.0250852,21.1313352 C53.2897159,20.7585511 53.1240341,20.2108807 53.3863636,19.8196875 Z" id="Path" fill="#47A74D"></path>
                <path d="M50.3327557,47.8429261 C50.4665631,47.7488829 50.6308577,47.7086307 50.792983,47.7301705 C50.975702,47.7984179 51.1244008,47.9355512 51.2071875,48.1121591 C51.2454667,48.1639232 51.2714376,48.2237349 51.283125,48.2870455 C51.287649,48.3533332 51.2757949,48.4197159 51.248608,48.4803409 C50.9678693,49.2934091 50.674858,50.102642 50.3695739,50.9080398 C50.2987496,51.1600013 50.1555289,51.3856338 49.9576705,51.5569602 C49.869529,51.6288117 49.7521105,51.6536667 49.6424148,51.6236932 C49.4974432,51.5661648 49.4468182,51.3935795 49.4123011,51.2394034 C49.191392,49.9576705 49.0648295,48.5815909 50.3327557,47.8429261 Z" id="Path" fill="#47A74D"></path>
                <circle id="Oval" fill="#0096A7" cx="40.39875" cy="40.39875" r="31.7717898"></circle>
                <path d="M40.39875,8.62696023 L40.2698864,8.62696023 L40.2698864,72.1682386 L40.3964489,72.1682386 C57.9435238,72.1682386 72.1682386,57.9435238 72.1682386,40.3964489 C72.1682386,22.8493739 57.9435238,8.62465909 40.3964489,8.62465909 L40.39875,8.62696023 Z" id="Path" fill="#078192"></path>
                <path d="M35.5410511,29.210625 L35.8540057,29.210625 C35.8540057,29.0817614 35.9736648,28.9805114 36.0403977,28.8792614 C36.2175852,28.5801136 36.0265909,28.2027273 35.8378977,27.9081818 L35.2050852,28.0646591 C35.1389238,28.0752103 35.0764402,28.1021019 35.0232955,28.1428977 C34.9788432,28.1843248 34.9476216,28.2379619 34.9335511,28.2970739 C34.8664362,28.5160871 34.9071464,28.7539512 35.0432756,28.9381794 C35.1794048,29.1224076 35.3948262,29.2311748 35.623892,29.2313352" id="Path" fill="#48A74D"></path>
                <path d="M36.3579545,27.8207386 C36.3395455,27.7056818 36.3165341,27.590625 36.3073295,27.4778693 C36.2901029,27.2416538 36.3303712,27.0047816 36.4246875,26.7875284 C36.6548011,26.7230966 36.9240341,26.6701705 37.0943182,26.83125 C37.2116761,26.9417045 37.2369886,27.118892 37.3244318,27.2569602 C37.4003609,27.3521368 37.4826214,27.4420851 37.5706534,27.5261932 C37.6661223,27.6538014 37.7435549,27.7939543 37.800767,27.9426989 L38.1666477,28.7457955 C38.2216775,28.8313015 38.234402,28.9373394 38.2011648,29.0334375 C38.1681663,29.0793463 38.1237445,29.1158357 38.0723011,29.1392898 L37.4072727,29.5212784 C36.9470455,29.7905114 36.3188352,30.0919602 36.364858,29.327983 C36.4215323,28.8270283 36.4192153,28.3211531 36.3579545,27.8207386 Z" id="Path" fill="#48A74D"></path>
                <path d="M39.1929545,28.8746591 L37.6557955,29.5834091 C37.073608,29.8503409 36.4223864,30.1978125 36.2751136,30.8237216 C36.2570322,31.0213697 36.2097275,31.2152416 36.1347443,31.3990057 C35.9828693,31.6613352 35.6376989,31.741875 35.4190909,31.9535795 C35.0785227,32.2895455 35.1314489,32.8533239 35.2833239,33.3066477 C35.4351989,33.7599716 35.6630114,34.2271023 35.589375,34.6873295 C35.3037393,34.8427934 35.0561675,35.0597135 34.864517,35.3224432 L34.560767,35.6814205 C34.5216477,35.7274432 34.4664205,35.7803693 34.408892,35.7596591 C34.3513636,35.7389489 34.408892,35.6215909 34.4388068,35.6676136 C34.2823295,36.5880682 33.4309091,37.3037216 33.3250568,38.237983 C33.3055038,38.451542 33.3055038,38.6664409 33.3250568,38.88 C33.3462299,39.5173618 33.4498764,40.149296 33.6334091,40.7600284 C33.8213028,41.3760576 34.2401851,41.8955377 34.8023864,42.2097443 C35.0503894,42.320795 35.3096035,42.4048853 35.5755682,42.4605682 L36.788267,42.7597159 C37.5683523,42.9507102 38.3714489,43.1440057 39.167642,43.0404545 C39.357558,42.9956007 39.5553113,42.9956007 39.7452273,43.0404545 C39.9293182,43.1071875 40.0719886,43.335 39.9753409,43.5006818 C40.6318627,44.3943246 41.0442673,45.4435771 41.1719318,46.5450852 L41.0269602,47.9878977 C40.9579261,48.6621307 40.8934943,49.3685795 41.1328125,50.001392 C41.4733807,50.8965341 42.3961364,51.6121875 42.3086932,52.5694602 C42.0785795,52.8824148 42.3086932,53.4646023 42.6492614,53.678608 C42.9985308,53.8632831 43.3915526,53.9492068 43.7860227,53.9271307 C44.4542226,54.0508007 45.1165485,53.6844486 45.3669034,53.0526989 L47.5944034,49.6171023 C47.9925,49.0026989 48.3998011,48.3583807 48.4849432,47.6312216 C48.5240625,47.2975568 48.4849432,46.9592898 48.5309659,46.625625 C48.6368182,45.7166761 49.2466193,44.9619034 49.7758807,44.2163352 C50.2625716,43.5285499 50.7001077,42.8072689 51.0852273,42.0578693 C51.2166558,41.8701875 51.2532313,41.6320216 51.1841761,41.4135511 C50.9977841,41.0499716 50.4501136,41.2294602 50.0451136,41.1627273 C49.6055966,41.091392 49.3041477,40.7025 49.0533239,40.3228125 L47.2929545,37.7478409 C47.1042614,37.4740057 46.913267,37.1150284 47.0835511,36.8273864 C47.8089705,37.6037145 48.4167837,38.4820976 48.887642,39.4345739 C49.0047779,39.7321447 49.186304,40.0001117 49.4192045,40.2192614 C50.0036932,40.6794886 50.843608,40.3343182 51.4902273,39.9891477 C52.2519034,39.5841477 53.0688068,39.1216193 53.4001705,38.323125 C52.8969719,38.0668099 52.4489844,37.7142054 52.0816193,37.2853125 C53.3905331,37.3082049 54.6872634,37.54129 55.9222159,37.9756534 L57.3512216,41.427358 C57.5007955,41.7932386 57.7907386,42.2327557 58.1727273,42.1176989 C58.4695739,42.0371591 58.573125,41.680483 58.6789773,41.3882386 C59.0379545,40.4102557 59.9123864,39.7291193 60.75,39.1009091 C61.0859659,38.8500852 61.4656534,38.5831534 61.8821591,38.6291761 C62.2618466,38.6682955 62.5609943,38.9582386 62.8302273,39.2297727 L64.4410227,40.854375 C64.8598295,41.2777841 65.3936932,41.7380114 65.9735795,41.6045455 C66.6777273,41.4411648 66.8940341,40.4976989 66.6639205,39.8119602 C66.5649716,39.5151136 66.4084943,39.218267 66.4476136,38.9076136 C66.5235511,38.3162216 67.2207955,38.0561932 67.802983,37.918125 C68.1992829,37.8016956 68.5761552,37.6272177 68.9213352,37.4003693 C69.291845,37.2085651 69.5934445,36.9061613 69.7842614,36.535142 C70.014375,36.0035795 69.8993182,35.3845739 69.6738068,34.8392045 C69.5058239,34.4388068 69.2872159,33.9624716 69.5288352,33.6011932 C69.6521926,33.4131555 69.8724929,33.3125693 70.0953794,33.3425166 C70.3182659,33.3724639 70.5042026,33.5276326 70.5735511,33.7415625 C70.6172727,33.8773295 70.6103693,34.0269034 70.6402841,34.1672727 C70.6975579,34.4182554 70.8673593,34.6288091 71.1005114,34.7379545 C71.1953036,34.7916586 71.3089289,34.800917 71.4111648,34.763267 C71.6021591,34.6712216 71.5814489,34.3950852 71.5308239,34.1902841 C71.1557386,32.6830398 71.1143182,31.0193182 69.9729545,28.3914205 C69.0525,26.2651705 67.6879261,24.0744886 67.5590625,23.8029545 C67.3128409,23.2875 66.9285511,22.8825 66.6109943,22.3992614 C66.252017,21.8607955 65.8539205,21.3522443 65.4604261,20.8344886 C65.0001989,20.2246875 64.4019034,19.5527557 63.8151136,18.8923295 C63.2283239,18.2319034 62.234233,18.4988352 61.4403409,18.8693182 C61.0446122,19.0881288 60.6674958,19.3390266 60.3127841,19.6194886 C59.4316303,20.2374095 58.429195,20.6609737 57.3719318,20.8621023 C57.256875,20.8828125 57.1165057,20.8943182 57.0405682,20.8022727 C56.9646307,20.7102273 56.9922443,20.6181818 56.9485227,20.5307386 C56.8426705,20.3213352 56.5274148,20.3880682 56.3134091,20.4847159 L51.8284943,22.5557386 L48.7219602,23.6142614 C48.4178811,23.7461673 48.0856489,23.7999573 47.755483,23.7707386 C47.4287216,23.7132102 47.1180682,23.4301705 47.1548864,23.101108 L48.0546307,22.594858 C47.5805966,22.0425852 46.7360795,22.0840057 46.0066193,22.0748011 C45.0158066,22.0628178 44.0352367,21.8726278 43.1117898,21.5133239 C41.9024739,22.3750657 40.7830695,23.3564719 39.7705398,24.4426705 C39.4778239,24.7267511 39.2433317,25.0652015 39.0801989,25.4390625 C38.9201665,25.8204136 38.9735448,26.2579404 39.2205682,26.5896307 C39.825767,26.4676705 40.60125,26.4170455 40.9026989,26.9578125 C40.9694318,27.0797727 41.0016477,27.220142 41.0775852,27.3375 C41.395142,27.827642 42.2281534,27.54 42.4812784,27.0107386 C42.7344034,26.4814773 42.6400568,25.8601705 42.711392,25.2802841 C42.7827273,24.7003977 43.1463068,24.0422727 43.7330966,24.046875 C43.8913336,24.0388046 44.0425955,24.1126969 44.1334943,24.2424716 C44.2991761,24.518608 44.0069318,24.8361648 43.774517,25.0570739 C43.5421023,25.277983 43.3649148,25.7221023 43.6502557,25.8739773 C43.8803693,26.0028409 44.2255398,25.752017 44.4395455,25.9176989 C44.6535511,26.0833807 44.499375,26.3963352 44.3475,26.6080398 C43.7722159,27.3835227 43.0496591,28.2349432 42.085483,28.2188352 C41.3393685,28.1964647 40.7089278,27.6588203 40.5690341,26.9255966 C40.1088068,26.7990341 39.775142,27.3651136 39.6278693,27.8230398 C39.4805966,28.2809659 39.335625,28.4328409 39.1929545,28.8746591 Z" id="Path" fill="#48A74D"></path>
                <path d="M64.8920455,44.2646591 C64.5762728,43.8838752 64.2037214,43.554012 63.7875,43.2866761 C63.5271133,43.0823725 63.1948751,42.9926682 62.8670455,43.0381534 C62.7990092,43.2105763 62.8134147,43.4046269 62.9061648,43.5651136 C62.998701,43.7224914 63.1169251,43.8632714 63.2559375,43.9816193 C63.8613257,44.5982763 64.5602699,45.115495 65.3269602,45.5141761 C65.7388636,45.7120739 65.9413636,45.2449432 65.761875,44.9066761 C65.5823864,44.6075284 65.1221591,44.5476989 64.8920455,44.2646591 Z" id="Path" fill="#48A74D"></path>
                <path d="M68.9650568,42.4421591 C69.0985174,42.4204054 69.2351464,42.4526996 69.3447443,42.5319034 C69.4508612,42.6345981 69.5078364,42.777874 69.5012216,42.9253977 C69.5012216,43.318892 69.271108,43.6686648 69.0409943,43.9862216 L68.2793182,45.0332386 C68.1320455,45.2380398 67.922642,45.4658523 67.6764205,45.4083239 C67.5911829,45.3805144 67.512771,45.3350355 67.4463068,45.274858 C66.8940341,44.8491477 66.2658239,44.0161364 67.0988352,43.5467045 C67.4098631,43.397133 67.7064318,43.2191918 67.9847727,43.015142 C68.2701136,42.7712216 68.5738636,42.4835795 68.9650568,42.4421591 Z" id="Path" fill="#48A74D"></path>
                <path d="M68.4150852,45.6683523 C68.5799365,45.6186145 68.7514628,45.5945542 68.9236364,45.597017 C69.044682,45.6114557 69.1636183,45.6400313 69.2780114,45.6821591 L71.3375284,46.3725 C70.7208239,46.67625 70.0419886,46.9869034 69.3746591,46.8327273 C69.1445455,46.7798011 68.9443466,46.6739489 68.7280398,46.6026136 C68.511733,46.5312784 67.3864773,46.4300284 67.3197443,46.1584943 C67.2207955,45.7350852 68.2102841,45.714375 68.4150852,45.6683523 Z" id="Path" fill="#48A74D"></path>
                <path d="M69.827983,49.156875 C69.4647604,49.4843217 69.0647536,49.7684964 68.6359943,50.0036932 L67.8052841,50.5007386 C67.7499676,51.2250098 67.7707918,51.953086 67.8674148,52.6730114 C67.9295455,53.0826136 68.04,53.5175284 68.3529545,53.7890625 C68.3856686,53.8227234 68.427098,53.846625 68.4726136,53.8580966 C68.6451989,53.8926136 68.732642,53.6601989 68.866108,53.545142 C68.9995739,53.4300852 69.204375,53.4323864 69.3378409,53.3150284 C69.4017713,53.2489008 69.4518426,53.1706644 69.4851136,53.0849148 C70.1430769,51.6261363 70.6952408,50.1219128 71.1373295,48.583892 C71.5078125,47.2929545 70.0834091,48.9083523 69.827983,49.156875 Z" id="Path" fill="#48A74D"></path>
                <path d="M19.3134375,17.7463636 C19.4966276,17.9810598 19.756438,18.1439503 20.0475,18.2065909 C21.1221307,18.5586648 22.325625,18.9130398 22.8963068,19.8887216 C23.2414773,20.4824148 23.2805966,21.2003693 23.3818466,21.8792045 C23.5170447,22.7956212 23.7796109,23.6886561 24.1619318,24.5324148 C24.27035,24.8386907 24.4776007,25.1001829 24.7510227,25.2756818 C25.043267,25.4252557 25.4114489,25.3815341 25.6944886,25.5472159 C25.885483,25.6576705 26.0281534,25.8578693 26.239858,25.9176989 C26.5344034,26.0028409 26.8358523,25.7796307 26.9877273,25.5126989 C27.1396023,25.245767 27.1902273,24.9351136 27.321392,24.6589773 C27.9887216,23.2552841 30.1448864,23.4370739 31.2563352,22.3578409 C31.5528888,22.0304024 31.7987657,21.6604236 31.9857955,21.2601989 C32.6025,20.1096307 33.2307102,18.747358 32.719858,17.5415625 C32.6203963,17.368166 32.5650804,17.1729798 32.5587784,16.9731818 C32.6025,16.570483 33.0949432,16.4140057 33.479233,16.3380682 C33.8635227,16.2621307 34.3651705,16.0596307 34.3559659,15.6477273 C32.8188068,14.6605398 30.8835511,14.596108 29.0633523,14.6283239 C27.4617614,14.6528693 25.8617045,14.7295739 24.2631818,14.8584375 C23.3379301,14.892488 22.4221748,15.0575099 21.5432386,15.3485795 C20.9656534,15.5809943 18.7933807,16.9110511 19.3134375,17.7463636 Z" id="Path" fill="#48A74D"></path>
                <path d="M20.4202841,22.0448864 C20.9495455,22.6316761 21.2233807,23.5222159 20.8644034,24.2240625 C20.385767,25.160625 18.984375,25.2917898 18.1191477,24.6842898 C17.2539205,24.0767898 16.8443182,23.0136648 16.6786364,21.9758523 C16.1470739,22.1415341 15.8640341,22.7628409 15.9031534,23.3174148 C15.9422727,23.8719886 16.2207102,24.3828409 16.4968466,24.8683807 L14.8078125,24.6612784 C14.6478946,24.4397654 14.5258129,24.1932691 14.4465341,23.9318182 C13.5145739,24.0790909 13.111875,25.3125 13.4639489,26.1869318 C13.8160227,27.0613636 14.6421307,27.6389489 15.4268182,28.1613068 L16.5934943,28.941392 C17.1710795,28.4811648 16.9915909,27.5860227 16.842017,26.8703693 C16.6924432,26.1547159 16.7982955,25.1560227 17.532358,25.00875 C18.5011364,24.8131534 19.2121875,26.4584659 20.1372443,26.1109943 C20.297863,26.0159747 20.4683944,25.9388112 20.6457955,25.8808807 C20.942642,25.8394602 21.1934659,26.0902841 21.3821591,26.325 C22.2972165,27.4579533 23.027264,28.7285466 23.5452273,30.0896591 C23.18625,30.6396307 22.3279261,30.4969602 21.7710511,30.1448864 C21.2141761,29.7928125 20.6941193,29.2819602 20.0359943,29.2658523 C19.6355966,29.4522443 19.9945739,30.0620455 20.3880682,30.257642 C20.7815625,30.4532386 21.3085227,30.8191193 21.0784091,31.1988068 C20.4373035,31.5900279 19.7663627,31.9301149 19.0718182,32.2159091 L19.1454545,31.7556818 L17.6451136,34.358267 C17.5363065,34.6028668 17.3536419,34.8072581 17.1227557,34.9427557 C16.9612456,34.9889002 16.8022514,35.0434345 16.6464205,35.1061364 C16.2552273,35.33625 16.3472727,35.927642 16.5290625,36.3441477 C16.7108523,36.7606534 16.9179545,37.276108 16.6372159,37.6327841 C15.5741194,37.6654144 14.5553448,37.2061168 13.8758523,36.3878693 C13.279858,36.5811648 12.6309375,36.8135795 12.317983,37.3566477 C12.0050284,37.8997159 12.3501989,38.7971591 12.9715057,38.7373295 C13.3788068,38.6913068 13.6618466,38.2771023 14.0438352,38.1643466 C14.6697443,37.9802557 15.2864489,38.8546875 14.9021591,39.3793466 C15.4038068,39.2044602 15.8364205,39.7728409 16.013608,40.2721875 C16.1907955,40.7715341 16.4232102,41.3859375 16.9501705,41.445767 C17.279233,40.9234091 17.9626705,40.7140057 18.5770739,40.7784375 C19.1886839,40.8794952 19.7757565,41.0949633 20.3075284,41.4135511 C22.8042614,42.7067898 25.2756818,44.0483523 27.7471023,45.3876136 C27.974101,45.4814806 28.1640599,45.6471895 28.2878693,45.8593466 C28.416733,46.1607955 28.2602557,46.5013636 28.1014773,46.7798011 C26.9303527,48.8973131 25.5322336,50.8810682 23.9318182,52.6960227 C22.1714489,54.6980114 20.063608,56.7023011 19.74375,59.348608 C20.3719602,59.348608 20.7125284,60.3173864 20.2246875,60.715483 C19.0741193,60.7638068 18.0984375,59.753608 17.7877841,58.6444602 C17.4771307,57.5353125 17.6704261,56.3594318 17.8660227,55.2249716 L18.5080398,51.5454545 C18.6253977,50.8551136 18.7381534,50.1647727 18.5816761,49.4882386 C18.1559659,47.7071591 15.9031534,46.5358807 16.1217614,44.7202841 C16.2,44.078267 16.5957955,43.4385511 16.3840909,42.82875 C16.1539773,42.1384091 15.2818466,41.9267045 14.5730966,41.715 C13.2200284,41.3123011 12.0165341,40.5276136 10.8360511,39.7521307 C10.2285511,39.3563352 9.59803977,38.9329261 9.24366477,38.3024148 C8.75582386,37.4348864 8.88238636,36.3671591 9.05267045,35.3891761 C9.55196226,32.4134171 10.4072189,29.5084805 11.6000284,26.7369034 C12.2108324,25.340563 12.9326348,23.9954558 13.7584943,22.714517 C14.3291761,21.8285795 15.120767,20.2476989 16.2897443,20.0889205 C17.4587216,19.930142 19.6494034,21.1911648 20.4202841,22.0448864 Z" id="Path" fill="#48A74D"></path>
                <g id="Group" transform="translate(27.450256, 42.720597)">
                    <g id="C">
                        <use fill="#000000" xlink:href="#path-1"></use>
                        <use fill="#FFFFFF" xlink:href="#path-1"></use>
                    </g>
                    <g id="O">
                        <use fill="#000000" xlink:href="#path-2"></use>
                        <use fill="#FFFFFF" xlink:href="#path-2"></use>
                    </g>
                    <g id="2">
                        <use fill="#000000" xlink:href="#path-3"></use>
                        <use fill="#FFFFFF" xlink:href="#path-3"></use>
                    </g>
                </g>
                <rect id="Rectangle" fill="#FFFFFF" x="28.8700568" y="23.8857955" width="5.6446875" height="18.9728693"></rect>
                <rect id="Rectangle" fill="#FFFFFF" x="37.8536932" y="28.1451989" width="5.6446875" height="14.715767"></rect>
                <rect id="Rectangle" fill="#FFFFFF" x="46.8534375" y="34.0315057" width="5.6446875" height="8.82715909"></rect>
            </g>
        </g>
    </g>
</svg>