<svg xmlns="http://www.w3.org/2000/svg" width="20" height="15" viewBox="0 0 20 15">
    <path fill="#00AEEF" fill-rule="nonzero" d="M18.125 0H1.875C.839 0 0 .84 0 1.875v11.25C0 14.161.84 15 1.875 15h16.25C19.161 15 20 14.16 20 13.125V1.875C20 .839 19.16 0 18.125 0zm0 1.875v1.594c-.876.713-2.272 1.822-5.257 4.16-.658.517-1.961 1.76-2.868 1.746-.907.014-2.21-1.229-2.868-1.746-2.984-2.337-4.381-3.447-5.257-4.16V1.875h16.25zm-16.25 11.25v-7.25c.895.713 2.164 1.713 4.1 3.228.853.672 2.348 2.156 4.025 2.147 1.669.009 3.145-1.453 4.026-2.146a663.632 663.632 0 0 0 4.099-3.23v7.251H1.875z"/>
</svg>
