<svg xmlns="http://www.w3.org/2000/svg" xmlns:xlink="http://www.w3.org/1999/xlink" width="140" height="141" viewBox="0 0 140 141">
    <defs>
        <ellipse id="a" cx="55.985" cy="55.36" rx="55.417" ry="55.27"/>
    </defs>
    <g fill="none" fill-rule="evenodd">
        <circle cx="70" cy="70.149" r="70" fill="#F1F0F2" fill-rule="nonzero"/>
        <circle cx="70" cy="70.149" r="55" fill="#FFF" fill-rule="nonzero"/>
        <g transform="translate(15 15.15)">
            <mask id="b" fill="#fff">
                <use xlink:href="#a"/>
            </mask>
            <use fill="#FFF" fill-rule="nonzero" xlink:href="#a"/>
            <g mask="url(#b)">
                <g transform="translate(-30.994 -2.108)">
                    <ellipse cx="86.979" cy="57.468" fill="#47A0B1" fill-rule="nonzero" opacity=".5" rx="55.417" ry="55.27"/>
                    <path fill="#47A0B1" fill-rule="nonzero" d="M0 .067h148.492v113.737H0z" opacity=".25"/>
                    <path fill="#CCCDD0" fill-rule="nonzero" d="M0 75.181h148.492v49.943H0z"/>
                    <g fill-rule="nonzero" opacity=".75">
                        <path fill="#99C75E" d="M85.792 47.013c-20.07 1.39-36.094 13.288-38.253 28.314H.036C2.963 54.951 25.9 39.102 53.752 39.102c11.994 0 23.075 2.94 32.04 7.911z"/>
                        <path fill="#75BC7D" d="M131.904 75.327H47.54c2.16-15.026 18.183-26.925 38.253-28.314a57.377 57.377 0 0 1 3.93-.133c21.874 0 39.883 12.452 42.182 28.447z"/>
                    </g>
                    <path fill="#FFF" fill-rule="nonzero" d="M150.343 80.774H101.51c-.803 0-1.455-.65-1.455-1.451V38.73l25.143-12.43 25.144 12.43v42.044z"/>
                    <path fill="#CCCDD0" fill-rule="nonzero" d="M156.162 41.569a3.079 3.079 0 0 1-4.12 1.385l-26.518-13.108a.748.748 0 0 0-.661 0L98.355 42.954a3.078 3.078 0 0 1-4.12-1.385 3.062 3.062 0 0 1 1.389-4.11l29.244-14.455a.74.74 0 0 1 .661 0l29.245 14.456a3.056 3.056 0 0 1 1.389 4.109z"/>
                    <ellipse cx="125.178" cy="66.677" fill="#FFF" fill-rule="nonzero" rx="11.157" ry="6.559"/>
                    <path fill="#ECECEC" fill-rule="nonzero" d="M137.186 66.677c0 4.098-5.377 7.42-12.008 7.42-6.631 0-12.006-3.322-12.006-7.42s5.376-7.42 12.006-7.42 12.008 3.322 12.008 7.42zm-12.008-6.559c-6.161 0-11.157 2.937-11.157 6.56 0 3.622 4.996 6.558 11.157 6.558s11.158-2.93 11.158-6.559-4.995-6.559-11.158-6.559z"/>
                    <path fill="#009640" fill-rule="nonzero" d="M121.806 66.363a.579.579 0 0 0-.335-.087c-.14-.012-.276.036-.344.12v-.375h-.2v.989h.192V66.9a.381.381 0 0 0 .104.07.54.54 0 0 0 .232.05.553.553 0 0 0 .375-.125.333.333 0 0 0 .096-.261.321.321 0 0 0-.12-.272zm-.391.543c-.296 0-.296-.222-.296-.271 0-.05 0-.288.304-.288.303 0 .295.206.295.282 0 .076-.056.294-.303.294v-.017z"/>
                    <path fill="#009640" fill-rule="nonzero" d="M121.693 66.085a.472.472 0 0 0-.36.13v-.12h-.216v.99h.2v-.357c.07.073.192.114.32.108.256 0 .48-.119.48-.384s-.2-.367-.424-.367zm.152.583a.368.368 0 0 1-.224.07c-.28 0-.296-.178-.296-.264 0-.087 0-.292.312-.292s.296.135.296.265a.328.328 0 0 1-.088.221z"/>
                    <path fill="#009640" d="M120.791 66.331a.708.708 0 0 1 .06.11.472.472 0 0 0-.06.08.42.42 0 0 0-.061-.08.596.596 0 0 1 .061-.11zM120.791 67.143c.017.03.038.057.06.082a.813.813 0 0 1-.06.11.665.665 0 0 1-.061-.11.42.42 0 0 0 .061-.082zM120.62 66.36a.905.905 0 0 1 .094.083.421.421 0 0 0-.03.097.592.592 0 0 0-.085-.056.721.721 0 0 1 .02-.124zM120.898 67.123a.385.385 0 0 0 .084.056.725.725 0 0 1-.018.124.767.767 0 0 1-.095-.082.573.573 0 0 0 .03-.098zM120.467 66.448c.04.011.08.027.117.045v.023a.375.375 0 0 0 0 .079.563.563 0 0 0-.098-.024.766.766 0 0 1-.02-.123zM120.998 67.149a.476.476 0 0 0-.006-.078.447.447 0 0 0 .098.023c.012.04.02.082.025.124a.821.821 0 0 1-.118-.045.145.145 0 0 0 .001-.024zM120.48 66.59a.676.676 0 0 0 .04.094.446.446 0 0 0-.1.012.85.85 0 0 1-.065-.108.844.844 0 0 1 .125.003zM121.163 66.977a.627.627 0 0 1 .064.106.692.692 0 0 1-.126 0 .478.478 0 0 0-.04-.091.467.467 0 0 0 .102-.015zM120.415 66.705a.4.4 0 0 0 .07.073.525.525 0 0 0-.092.046.714.714 0 0 1-.098-.079.772.772 0 0 1 .12-.04zM121.19 66.841c.034.024.066.05.097.079a.721.721 0 0 1-.12.04.47.47 0 0 0-.069-.074.444.444 0 0 0 .091-.045zM120.393 66.841a.385.385 0 0 0 .091.045.415.415 0 0 0-.07.075.745.745 0 0 1-.12-.041.714.714 0 0 1 .1-.079zM121.168 66.705c.04.01.08.024.119.04a.773.773 0 0 1-.098.079.64.64 0 0 0-.09-.046.457.457 0 0 0 .069-.073zM120.42 66.977a.446.446 0 0 0 .1.012.732.732 0 0 0-.04.092.692.692 0 0 1-.125 0 .768.768 0 0 1 .065-.104zM121.227 66.581a.681.681 0 0 1-.064.108.467.467 0 0 0-.102-.012c.017-.03.03-.06.04-.093a.843.843 0 0 1 .126-.003zM120.591 67.071a.361.361 0 0 0 0 .078v.024a.764.764 0 0 1-.117.045.807.807 0 0 1 .025-.124.466.466 0 0 0 .092-.023zM121.117 66.448a.732.732 0 0 1-.024.123.535.535 0 0 0-.099.024.492.492 0 0 0 .007-.102.685.685 0 0 1 .116-.045zM120.685 67.123a.399.399 0 0 0 .029.098.767.767 0 0 1-.095.082.697.697 0 0 1-.02-.124.43.43 0 0 0 .086-.056zM120.964 66.36c.01.041.016.082.018.124a.512.512 0 0 0-.084.056.613.613 0 0 0-.03-.097.905.905 0 0 1 .096-.083zM120.725 66.457a.533.533 0 0 1 .058.08.3.3 0 0 0-.03.079.31.31 0 0 0-.056-.064.445.445 0 0 1 .028-.095zM120.83 67.051a.303.303 0 0 0 .055.063.578.578 0 0 1-.027.096.4.4 0 0 1-.059-.081.346.346 0 0 0 .031-.078zM120.6 66.516v-.015a.41.41 0 0 1 .082.056.307.307 0 0 0 0 .05v.033a.297.297 0 0 0-.074-.04.562.562 0 0 1-.009-.084zM120.905 67.058a.28.28 0 0 0 0-.033c.023.016.047.03.073.04a.426.426 0 0 1 .008.084v.016a.498.498 0 0 1-.082-.056.323.323 0 0 0 0-.05zM120.496 66.59a.497.497 0 0 1 .098.025.312.312 0 0 0 .026.08.327.327 0 0 0-.082-.014.516.516 0 0 1-.042-.09zM120.96 66.976a.347.347 0 0 0 .085.013c.017.028.03.059.04.09a.424.424 0 0 1-.096-.025.366.366 0 0 0-.028-.078zM120.53 66.692a.361.361 0 0 0 .052.065.294.294 0 0 0-.082.016.4.4 0 0 1-.07-.072.42.42 0 0 1 .1-.01zM121.082 66.893c.027.02.05.044.07.07a.536.536 0 0 1-.099.011.325.325 0 0 0-.053-.065.454.454 0 0 0 .082-.016zM120.496 66.79a.349.349 0 0 0 .072.043.409.409 0 0 0-.072.043.418.418 0 0 1-.09-.043.504.504 0 0 1 .09-.044zM121.085 66.79a.463.463 0 0 1 .09.043.39.39 0 0 1-.09.043.331.331 0 0 0-.072-.043.291.291 0 0 0 .072-.044zM120.5 66.893a.44.44 0 0 0 .082.016.32.32 0 0 0-.052.065.51.51 0 0 1-.1-.01.35.35 0 0 1 .07-.071zM121.152 66.701a.447.447 0 0 1-.07.072.304.304 0 0 0-.082-.016.368.368 0 0 0 .053-.065c.033 0 .066.002.099.01zM120.62 66.976a.303.303 0 0 0-.026.078.418.418 0 0 1-.098.025.516.516 0 0 1 .042-.09.327.327 0 0 0 .082-.013zM121.085 66.59a.432.432 0 0 1-.04.091.347.347 0 0 0-.084.014.376.376 0 0 0 .028-.08.507.507 0 0 1 .096-.024zM120.753 67.051a.291.291 0 0 0 .03.078.542.542 0 0 1-.058.081.48.48 0 0 1-.028-.096.275.275 0 0 0 .056-.063zM120.68 67.025v.033a.323.323 0 0 0 0 .05.56.56 0 0 1-.084.057v-.016a.562.562 0 0 1 0-.084.297.297 0 0 0 .083-.04zM120.858 66.457c.012.031.02.063.027.095a.348.348 0 0 0-.055.064.355.355 0 0 0-.03-.079.4.4 0 0 1 .058-.08zM120.984 66.501v.015a.426.426 0 0 1-.008.084.354.354 0 0 0-.074.04v-.033a.307.307 0 0 0 0-.05.375.375 0 0 1 .082-.056zM120.693 66.607a.35.35 0 0 1 0-.038.31.31 0 0 1 .053.066.2.2 0 0 0 0 .049v.021a.296.296 0 0 0-.048-.052.266.266 0 0 1-.005-.046zM120.838 66.982v-.022c.014.02.03.037.048.053a.249.249 0 0 1 0 .045v.039a.302.302 0 0 1-.053-.065.307.307 0 0 0 .005-.05zM120.61 66.617c.026.012.05.027.073.044.004.024.011.046.02.068a.257.257 0 0 0-.063-.033.275.275 0 0 1-.03-.079zM120.878 66.937c.02.013.042.024.064.032a.309.309 0 0 1 .03.078.322.322 0 0 1-.072-.042.237.237 0 0 0-.022-.068zM120.547 66.692a.402.402 0 0 1 .083.016c.012.02.027.04.044.057a.268.268 0 0 0-.072-.01.288.288 0 0 1-.055-.063zM120.909 66.901a.312.312 0 0 0 .07.008c.021.02.04.04.055.064a.285.285 0 0 1-.082-.016.296.296 0 0 0-.043-.056zM120.598 66.77a.248.248 0 0 0 .058.04.327.327 0 0 0-.069.015.311.311 0 0 1-.073-.041.308.308 0 0 1 .084-.014zM120.994 66.841c.027.01.051.023.074.04a.268.268 0 0 1-.083.013.355.355 0 0 0-.06-.038.249.249 0 0 0 .07-.015zM120.583 66.841a.327.327 0 0 0 .07.016.244.244 0 0 0-.06.037.268.268 0 0 1-.083-.013.306.306 0 0 1 .073-.04zM120.984 66.77c.028.001.056.006.082.014a.287.287 0 0 1-.073.041.31.31 0 0 0-.07-.016.289.289 0 0 0 .06-.039zM120.674 66.901a.255.255 0 0 0-.044.056.277.277 0 0 1-.083.016.364.364 0 0 1 .055-.064.332.332 0 0 0 .072-.008zM121.034 66.692a.288.288 0 0 1-.054.064.252.252 0 0 0-.071.01.305.305 0 0 0 .043-.058.414.414 0 0 1 .082-.016z"/>
                    <path fill="#009640" d="M120.791 66.969a.31.31 0 0 0 .028.065.045.045 0 0 1-.028.081.045.045 0 0 1-.028-.08.31.31 0 0 0 .028-.066zM120.745 66.96v.022a.206.206 0 0 0 0 .05.346.346 0 0 1-.054.065v-.039a.248.248 0 0 1 0-.045.305.305 0 0 0 .054-.053zM120.703 66.937a.286.286 0 0 0-.02.068.303.303 0 0 1-.073.042.311.311 0 0 1 .03-.078.253.253 0 0 0 .063-.032zM120.791 66.552a.318.318 0 0 1 .028.08.039.039 0 0 1 0 .054.039.039 0 0 1-.055 0 .039.039 0 0 1 0-.054.318.318 0 0 1 .027-.08zM120.887 66.57a.35.35 0 0 1 0 .037.266.266 0 0 1 0 .046.253.253 0 0 0-.048.052v-.021a.295.295 0 0 0 0-.05.266.266 0 0 1 .048-.065zM120.972 66.617a.274.274 0 0 1-.03.079.293.293 0 0 0-.064.033.266.266 0 0 0 .022-.068.326.326 0 0 1 .072-.044z"/>
                    <path fill="#009FE3" fill-rule="nonzero" d="M115.375 66.724l-.044.025a.15.15 0 0 0-.133-.073.205.205 0 0 0-.1.024.167.167 0 0 0-.069.066.174.174 0 0 0 0 .17c.012.021.03.04.052.052.026.012.054.019.082.018.03 0 .061-.006.09-.018a.175.175 0 0 0 .066-.05l.044.03a.252.252 0 0 1-.088.066.29.29 0 0 1-.11.02.21.21 0 0 1-.152-.052.19.19 0 0 1-.055-.141c0-.063.025-.123.071-.166a.242.242 0 0 1 .175-.07.222.222 0 0 1 .11.026.185.185 0 0 1 .061.073zM115.482 66.47h.05l-.029.222a.187.187 0 0 1 .145-.073.134.134 0 0 1 .141.138.71.71 0 0 1-.008.092l-.025.188h-.052l.025-.188a.664.664 0 0 0 .008-.09.092.092 0 0 0-.027-.067.096.096 0 0 0-.07-.027.157.157 0 0 0-.075.022.165.165 0 0 0-.055.058.376.376 0 0 0-.03.116l-.023.176h-.052l.077-.566zM116.716 67.599h-.118l.02-.145a.477.477 0 0 1-.358.17.384.384 0 0 1-.294-.126.463.463 0 0 1-.12-.314.56.56 0 0 1 .155-.396.48.48 0 0 1 .362-.164.371.371 0 0 1 .197.05.4.4 0 0 1 .144.158l.02-.183h.121l-.13.95zm-.444-.088a.394.394 0 0 0 .35-.217.514.514 0 0 0 .053-.23.327.327 0 0 0-.086-.248.283.283 0 0 0-.232-.091.376.376 0 0 0-.294.129.466.466 0 0 0-.118.314.327.327 0 0 0 .085.248.283.283 0 0 0 .233.091l.009.004z"/>
                    <path fill="#009FE3" fill-rule="nonzero" d="M116.358 66.63h.053l-.008.05a.164.164 0 0 1 .051-.045.134.134 0 0 1 .062-.016c.016 0 .032.003.046.01l-.025.048a.092.092 0 0 0-.032-.008.096.096 0 0 0-.055.019.159.159 0 0 0-.044.056.513.513 0 0 0-.028.12l-.024.173h-.044l.048-.408zM117.392 66.637h.125l-.102.598a.596.596 0 0 1-.058.203.355.355 0 0 1-.162.132.714.714 0 0 1-.519 0 .34.34 0 0 1-.16-.141l.102-.03c.062.09.184.144.313.136.071.001.141-.012.203-.04a.268.268 0 0 0 .122-.096.578.578 0 0 0 .046-.155v-.027a.513.513 0 0 1-.35.124.472.472 0 0 1-.29-.087.285.285 0 0 1-.113-.231c0-.07.024-.14.07-.199a.561.561 0 0 1 .429-.205.46.46 0 0 1 .188.037.394.394 0 0 1 .15.115l.006-.134zm-.339.067a.47.47 0 0 0-.206.044.359.359 0 0 0-.15.115.27.27 0 0 0-.053.162.209.209 0 0 0 .084.169c.06.045.141.069.224.064a.437.437 0 0 0 .29-.09.265.265 0 0 0 .113-.23.21.21 0 0 0-.093-.18.341.341 0 0 0-.209-.054z"/>
                    <path fill="#009FE3" fill-rule="nonzero" d="M117.99 67.143h-.864a.364.364 0 0 0 .089.267.32.32 0 0 0 .247.096.425.425 0 0 0 .335-.155l.092.074a.46.46 0 0 1-.184.14.592.592 0 0 1-.243.052.422.422 0 0 1-.345-.14.472.472 0 0 1-.114-.31.54.54 0 0 1 .076-.272.57.57 0 0 1 .209-.205.572.572 0 0 1 .278-.071.416.416 0 0 1 .437.434.447.447 0 0 1-.013.09zm-.114-.105a.288.288 0 0 0-.086-.226.3.3 0 0 0-.23-.085.436.436 0 0 0-.256.078.443.443 0 0 0-.156.223l.728.01z"/>
                    <path fill="#009640" fill-rule="nonzero" d="M117.512 66.63h.052l-.008.057a.16.16 0 0 1 .061-.05.15.15 0 0 1 .074-.018c.03 0 .059.008.082.026.02.017.035.04.042.064a.207.207 0 0 1 .07-.066.16.16 0 0 1 .082-.024.124.124 0 0 1 .134.133.625.625 0 0 1 0 .064l-.03.223h-.052l.027-.195a.783.783 0 0 0 .008-.09.08.08 0 0 0-.023-.06.088.088 0 0 0-.063-.022.12.12 0 0 0-.074.025.133.133 0 0 0-.05.06.324.324 0 0 0-.022.087l-.027.195h-.052l.03-.223a.35.35 0 0 0 0-.059.084.084 0 0 0-.025-.062.08.08 0 0 0-.061-.024.134.134 0 0 0-.06.014.133.133 0 0 0-.049.039.178.178 0 0 0-.028.06c0 .024-.01.045-.013.064l-.025.191h-.052l.052-.41zM119.024 67.599h-.118l.018-.145a.474.474 0 0 1-.357.17.397.397 0 0 1-.295-.126.46.46 0 0 1-.118-.314.57.57 0 0 1 .153-.396.481.481 0 0 1 .363-.164.384.384 0 0 1 .2.05c.06.038.11.092.142.158l.021-.183h.121l-.13.95zm-.445-.088a.385.385 0 0 0 .348-.217.48.48 0 0 0 .056-.23.327.327 0 0 0-.085-.248.285.285 0 0 0-.234-.091.378.378 0 0 0-.295.129.453.453 0 0 0-.118.314.327.327 0 0 0 .086.249.285.285 0 0 0 .233.09l.009.004z"/>
                    <path fill="#009640" fill-rule="nonzero" d="M118.876 66.675l-.029.049a.1.1 0 0 0-.083-.05.068.068 0 0 0-.046.018.056.056 0 0 0-.02.04c.001.011.005.022.013.03.014.017.031.031.05.042.03.016.057.039.078.066.013.02.02.042.019.066a.112.112 0 0 1-.036.085.134.134 0 0 1-.094.033.155.155 0 0 1-.133-.066l.03-.038c.024.032.06.053.1.055a.07.07 0 0 0 .053-.021.064.064 0 0 0 .022-.05.074.074 0 0 0-.016-.044.4.4 0 0 0-.058-.045.302.302 0 0 1-.069-.059.101.101 0 0 1 .017-.13.134.134 0 0 1 .144-.019.15.15 0 0 1 .058.038zM119.011 66.476h.052l-.021.153h.083v.046h-.083l-.05.362h-.051l.049-.362h-.07v-.046h.069zM120.105 67.143h-.864a.368.368 0 0 0 .091.267.318.318 0 0 0 .246.096c.065 0 .13-.013.19-.04a.403.403 0 0 0 .144-.115l.092.074a.485.485 0 0 1-.183.14.592.592 0 0 1-.246.052.413.413 0 0 1-.34-.14.473.473 0 0 1-.114-.31.56.56 0 0 1 .28-.477.582.582 0 0 1 .281-.071.42.42 0 0 1 .438.434.382.382 0 0 0-.015.09zm-.114-.105a.308.308 0 0 0-.094-.22.319.319 0 0 0-.221-.081.421.421 0 0 0-.256.077.45.45 0 0 0-.157.224h.728z"/>
                    <path fill="#009640" fill-rule="nonzero" d="M119.61 66.63h.053l-.007.05a.15.15 0 0 1 .051-.045.134.134 0 0 1 .06-.016c.016 0 .032.003.047.01l-.024.048a.092.092 0 0 0-.034-.008.1.1 0 0 0-.054.019.143.143 0 0 0-.043.056.399.399 0 0 0-.028.12l-.024.173h-.052l.056-.408zM114.917 66.773c.07-.078.204-.123.344-.113a.569.569 0 0 1 .327.086c.089.071.13.162.117.253a.285.285 0 0 1-.1.236.52.52 0 0 1-.361.118.627.627 0 0 1-.235-.043.25.25 0 0 1-.1-.07v.07h-.202v-.956h.193l.017.419zm.293-.027c-.293 0-.293.22-.293.263 0 .043 0 .253.285.253s.302-.15.302-.258c0-.107-.025-.28-.294-.28v.022z"/>
                    <path fill="#009640" fill-rule="nonzero" d="M114.894 66.56v-.116h.194v.116a.464.464 0 0 1 .356-.133c.22 0 .441.11.441.376s-.229.381-.483.381a.437.437 0 0 1-.322-.11v.353h-.195l.009-.867zm.483.532a.323.323 0 0 0 .22-.07.36.36 0 0 0 .093-.225c0-.127-.06-.26-.288-.26-.229 0-.314.225-.314.289 0 .063.017.254.289.254v.012z"/>
                    <rect width="1.972" height="6.599" x="130.92" y="63.378" fill="#999" fill-rule="nonzero" rx=".986"/>
                    <ellipse cx="131.907" cy="64.3" fill="#DFAC00" fill-rule="nonzero" rx="1" ry="1"/>
                    <ellipse cx="131.907" cy="68.6" fill="#ECECEC" fill-rule="nonzero" rx="1" ry="1"/>
                    <ellipse cx="125.178" cy="66.677" fill="#FFF" fill-rule="nonzero" stroke="#E6E6E6" stroke-width="6" rx="2.766" ry="3.485"/>
                    <path fill="#009FE3" fill-rule="nonzero" d="M126.801 67.563l.197-.562c0-.03-.02-.06-.056-.083l-.234-.156c-.006-.005-.018-.006-.027-.004-.01.003-.014.01-.01.015l.13.79zm0 .048v.041l-.112.01c-.091-.448-.234-1.186-.278-1.352-.004-.02.016-.039.049-.046l.325-.07c.182-.039.303-.137.304-.248v-.28c.05.055.091.113.124.174.35.636.19 1.172-.134 1.486-.056.053-.292.285-.292.285h.014z"/>
                    <path fill="#999" fill-rule="nonzero" d="M126.811 65.665v.281c0 .11-.07.21-.173.248l-.186.07a.044.044 0 0 0-.028.046l.159 1.353.018.172c.051.444.01.502-.069.544a.167.167 0 0 1-.15-.025.024.024 0 0 0-.034.03c.043.106.121.306.177.424a.737.737 0 0 1 .056.36c-.03.118-.065.231-.098.338a.919.919 0 0 1-.309.448.753.753 0 0 1-.39.16l.016-1.173c0-.162-.267-.297-.617-.302-.35-.005-.623.123-.626.285l-.016 1.19c-.08-.01-.16-.026-.238-.049a.791.791 0 0 1-.252-.133.907.907 0 0 1-.295-.457 7.95 7.95 0 0 1-.091-.337.763.763 0 0 1 .067-.362c.059-.118.143-.315.188-.42a.024.024 0 0 0-.033-.031.166.166 0 0 1-.15.022c-.079-.045-.119-.104-.056-.547.01-.061.02-.133.032-.22l.187-1.3a.043.043 0 0 0-.027-.045l-.183-.076a.266.266 0 0 1-.167-.252v-.282a1.122 1.122 0 0 1 1-.594l.738.01h.567c.419.01.798.25.983.624z"/>
                    <path fill="#999" fill-rule="nonzero" d="M126.746 67l-.112.563-.08-.79a.012.012 0 0 1 .021-.01l.133.155a.118.118 0 0 1 .038.083z"/>
                    <path fill="#009FE3" fill-rule="nonzero" d="M126.639 67.61c.037.27.059.54.065.81a3.736 3.736 0 0 1-.133.748.737.737 0 0 0-.056-.36c-.056-.118-.134-.318-.178-.425a.024.024 0 0 1 .035-.029.167.167 0 0 0 .15.025c.078-.042.12-.1.069-.544 0-.05-.012-.108-.019-.172l.064-.01v-.042h.003z"/>
                    <path fill="#666" fill-rule="nonzero" d="M125.779 70.157l-.015 1.135a1.014 1.014 0 0 0-.59-.214 1.254 1.254 0 0 0-.622.171l-.016-1.093v-.043l.016-1.189c0-.162.281-.289.626-.285.345.004.62.133.617.302l-.016 1.174v.042z"/>
                    <path fill="#009FE3" fill-rule="nonzero" d="M123.881 68.322a.024.024 0 0 1 .034.03c-.046.106-.134.303-.189.422a.763.763 0 0 0-.066.362 3.911 3.911 0 0 1-.107-.757c.014-.27.043-.54.087-.807l.066.01-.032.22c-.062.443-.022.501.056.547a.166.166 0 0 0 .151-.027zM123.893 67.482l.173-.746c.002-.006-.003-.01-.012-.013a.03.03 0 0 0-.025.004l-.246.15c-.035.023-.054.052-.054.083l.164.522zm-.019.084l-.269-.29c-.3-.32-.433-.856-.061-1.487.036-.06.08-.117.13-.173v.282c-.004.11.11.21.285.252l.312.076c.031.007.05.026.046.045l-.32 1.3-.123-.005z"/>
                    <path fill="#999" fill-rule="nonzero" d="M123.732 66.724a.012.012 0 0 1 .021.01l-.101.745-.096-.522c0-.03.011-.06.032-.083l.144-.15z"/>
                    <path fill="#666" fill-rule="nonzero" d="M126.011 67.211l-.589-.053a3.011 3.011 0 0 0-.534 0l-.589.053a.056.056 0 0 1-.054-.061l.081-.726a.055.055 0 0 1 .055-.048l.574-.038c.133-.01.267-.01.4 0l.575.038c.028 0 .051.02.055.048l.081.726a.056.056 0 0 1-.055.061z"/>
                    <path fill="#009FE3" fill-rule="nonzero" stroke="#009FE3" stroke-width="2" d="M125.496 71.203c-.383 3.462-1.938 6.792-4.47 9.526-2.937 3.166-6.787 5.102-10.847 5.453-.438.037-.878.056-1.318.056-3.924 0-7.832-1.49-10.892-4.19a19.328 19.328 0 0 1-4.14-5.206 24.074 24.074 0 0 1-1.163-2.587c-.6-1.491-1.166-2.9-2.215-4.058-2.185-2.405-5.166-2.077-7.054-1.065-2.09 1.12-3.856 3.596-3.087 6.604l-.776.197c-.877-3.425 1.12-6.238 3.485-7.506 2.822-1.511 5.97-1.027 8.025 1.235 1.147 1.262 1.766 2.806 2.366 4.298.324.854.699 1.688 1.121 2.498a18.52 18.52 0 0 0 3.97 4.993c3.24 2.857 7.479 4.292 11.618 3.936 3.86-.332 7.526-2.18 10.326-5.195 2.413-2.602 3.894-5.769 4.26-9.056a.994.994 0 0 1 .79.067z"/>
                    <path fill="#FFF" fill-rule="nonzero" d="M89.353 80.274l-.017 2.74c0 .617-.03 1.3-.452 1.752-.466.5-1.232.533-1.917.533l-6.01.016c-.018-1.809-.048-3.672-.76-5.328-1.056-2.453-3.653-4.163-6.329-4.164-2.676-.002-5.275 1.705-6.332 4.156-.725 1.682-.748 3.571-.739 5.4l-31.81.137c-.246 0-.527-.014-.687-.2-.16-.186-.133-.448-.108-.685.235-2.238-.195-4.632-1.623-6.374-2.076-2.53-6.11-3.093-8.904-1.385-2.793 1.709-4.131 5.39-3.267 8.545-1.55.456-3.205-.078-4.724-.608-2.27-.788-4.822-1.865-5.57-4.114-.018-.05-.033-.099-.047-.148-.385-1.32-.042-2.73.303-4.06l.308-1.192c.365-1.407.4-4.228 1.989-4.85 2.497-.975 5.539-.6 8.145-1.137 2.04-.419 3.45-1.066 5.411-1.761 11.875-4.207 26.299-4.36 36.98 2.31.995.62 1.967 1.3 3.072 1.707 1.335.496 2.788.564 4.209.696 2.537.235 5.05.686 7.511 1.35v-4.662a.084.084 0 0 1 .134-.07l.633.422a.084.084 0 0 1 .037.07v4.467a44.86 44.86 0 0 1 9.006 3.695c.47.254.953.532 1.236.99.318.508.325 1.147.322 1.752z"/>
                    <path fill="#CCCDD0" fill-rule="nonzero" d="M64.92 82.626c-.123.686-.247 1.222-.329 1.606a.667.667 0 0 1-.677.52l-25.733-.462a.935.935 0 0 1-.75-.4l-1.046-1.51 28.503.246h.032zM88.958 82.395c-.014.588-.04 1.435-.08 1.539a.148.148 0 0 1-.233.06l-1.335-1.187a1.953 1.953 0 0 1-.577-1.124l-.095-.64a.266.266 0 0 1 .346-.283l1.538.72c.282.22.444.559.436.915zM88.659 80.082a.305.305 0 0 1-.43.3l-3.627-1.388a.4.4 0 0 1-.225-.256l-.495-1.718a.275.275 0 0 1 .413-.266s3.81 2.061 3.86 2.108c.26.176.432.455.472.766l.032.454z"/>
                    <path fill="#FFF" fill-rule="nonzero" d="M65.179 73.188c.554 4.262.21 7.388-.134 9.323h-.032l-17.626-.168a77.337 77.337 0 0 0-.75-9.999l18.542.844z"/>
                    <path fill="#CCCDD0" fill-rule="nonzero" d="M64.842 73.06l-18.095-.85a.299.299 0 0 1-.275-.248c-.565-2.854-.876-4.87-1.068-5.643a.29.29 0 0 1 .283-.36 30.554 30.554 0 0 1 15.757 4.367l1.443.933c.643.414 1.317.799 1.937 1.249.112.07.186.187.2.318 0 .113-.045.239-.182.233z"/>
                    <path fill="#FFF" fill-rule="nonzero" d="M46.604 82.323l-10.483-.1-7.562-10.932c.18.162.411.256.653.266l16.642.763c.466 3.315.717 6.656.75 10.003z"/>
                    <path fill="#CCCDD0" fill-rule="nonzero" d="M45.695 71.971a.187.187 0 0 1-.195.213l-8.995-.411-4.611-.212c-1.185-.055-2.767.188-3.74-.623-.475-.4-.907-.862-1.359-1.285-.52-.49-.277-.746.295-.969 5.398-2.107 11.264-2.855 17.06-2.727a.392.392 0 0 1 .48.363c.439 1.868.794 3.751 1.065 5.651zM17.425 75.398v.382a.31.31 0 0 1-.31.31h-5.39a.267.267 0 0 1-.266-.267v-2.66a.25.25 0 0 1 .25-.248h1.58c.48.001.95.146 1.348.416l2.653 1.813a.309.309 0 0 1 .135.254z"/>
                    <path fill="#666" fill-rule="nonzero" d="M73.907 76.372c3.562 0 6.45 2.88 6.45 6.432 0 3.553-2.888 6.433-6.45 6.433-3.562 0-6.45-2.88-6.45-6.433 0-1.706.68-3.342 1.889-4.549a6.457 6.457 0 0 1 4.56-1.883z"/>
                    <ellipse cx="73.907" cy="82.804" fill="#FFF" fill-rule="nonzero" rx="4.038" ry="4.027"/>
                    <path fill="#CCCDD0" fill-rule="nonzero" d="M75.103 79.69a.075.075 0 0 1 .04.107l-.522.903-.631 1.09a.073.073 0 0 1-.134 0l-.629-1.09-.525-.903a.074.074 0 0 1 .04-.108c.766-.25 1.59-.25 2.356 0h.005zM71.801 80.212a.075.075 0 0 1 .113.02l.523.902.631 1.09a.074.074 0 0 1-.064.111h-2.307a.075.075 0 0 1-.074-.088c.164-.786.577-1.5 1.178-2.035zM70.603 83.328a.074.074 0 0 1 .074-.09h2.308a.073.073 0 0 1 .063.11l-.631 1.089-.523.904a.073.073 0 0 1-.113.019 3.765 3.765 0 0 1-1.178-2.034v.002zM72.709 85.918a.075.075 0 0 1-.04-.108l.522-.903.632-1.09a.073.073 0 0 1 .133 0l.63 1.09.524.903a.074.074 0 0 1-.04.108c-.765.25-1.59.25-2.356 0h-.005zM76.013 85.395a.076.076 0 0 1-.115-.02l-.522-.902-.632-1.09a.074.074 0 0 1 .064-.111h2.308a.076.076 0 0 1 .074.089 3.765 3.765 0 0 1-1.177 2.034zM77.21 82.28a.074.074 0 0 1-.074.089h-2.308a.073.073 0 0 1-.064-.11l.632-1.089.522-.904a.075.075 0 0 1 .113-.02 3.763 3.763 0 0 1 1.178 2.035z"/>
                    <ellipse cx="73.907" cy="82.804" fill="#CCCDD0" fill-rule="nonzero" rx="1" ry="1"/>
                    <path fill="#666" fill-rule="nonzero" d="M27.31 76.372c3.562 0 6.45 2.88 6.45 6.432 0 3.553-2.888 6.433-6.45 6.433-3.563 0-6.45-2.88-6.45-6.433 0-1.706.679-3.342 1.888-4.549a6.457 6.457 0 0 1 4.561-1.883z"/>
                    <ellipse cx="27.309" cy="82.804" fill="#FFF" fill-rule="nonzero" rx="4.038" ry="4.027"/>
                    <path fill="#CCCDD0" fill-rule="nonzero" d="M28.506 79.69a.075.075 0 0 1 .04.107l-.522.903-.632 1.09a.073.073 0 0 1-.133 0l-.63-1.09-.524-.903a.076.076 0 0 1 .04-.108c.765-.25 1.59-.25 2.356 0h.005zM25.204 80.212a.075.075 0 0 1 .113.02l.522.902.632 1.09a.073.073 0 0 1-.064.111h-2.308a.075.075 0 0 1-.073-.088c.165-.786.577-1.499 1.178-2.035zM24.006 83.328a.074.074 0 0 1 .073-.09h2.31a.073.073 0 0 1 .062.11l-.632 1.089-.52.904a.076.076 0 0 1-.115.019 3.765 3.765 0 0 1-1.178-2.034v.002zM26.113 85.918a.075.075 0 0 1-.041-.108l.523-.903.632-1.09a.073.073 0 0 1 .133 0l.63 1.09.524.903a.074.074 0 0 1-.04.108c-.765.25-1.59.25-2.354 0h-.007zM29.415 85.395a.075.075 0 0 1-.113-.02l-.524-.902-.63-1.09a.073.073 0 0 1 .063-.111h2.309a.075.075 0 0 1 .073.089 3.765 3.765 0 0 1-1.178 2.034zM30.612 82.28a.074.074 0 0 1-.074.089h-2.307a.073.073 0 0 1-.064-.11l.631-1.089.523-.904a.075.075 0 0 1 .113-.02 3.763 3.763 0 0 1 1.178 2.035z"/>
                    <ellipse cx="27.309" cy="82.804" fill="#CCCDD0" fill-rule="nonzero" rx="1" ry="1"/>
                    <path fill="#CCCDD0" fill-rule="nonzero" d="M119.013 43.277h5.829v5.813h-5.829zM119.013 36.239h5.829v5.813h-5.829zM126.225 43.277h5.829v5.813h-5.829zM126.091 36.239h5.829v5.813h-5.829z"/>
                    <path fill="#FFF" fill-rule="nonzero" d="M105.281 20.004a.22.22 0 0 0 .212-.293 4.177 4.177 0 0 0-3.378-2.774l-.353-.05-.486-.788a3.091 3.091 0 0 0-5.15-.164l-.502.713-1.561-.028a3.393 3.393 0 0 0-3.392 3.16.21.21 0 0 0 .21.224h14.4zM62.416 28.967a.22.22 0 0 0 .208-.29 4.18 4.18 0 0 0-3.378-2.773l-.353-.048-.486-.789a3.09 3.09 0 0 0-5.15-.162l-.498.704-1.561-.028a3.395 3.395 0 0 0-3.392 3.164.21.21 0 0 0 .21.222h14.4zM88.526 29.5a.134.134 0 0 0 .125-.172 2.486 2.486 0 0 0-2.013-1.653l-.208-.028-.29-.47a1.838 1.838 0 0 0-3.071-.097l-.298.418-.935-.016a2.022 2.022 0 0 0-2.019 1.884c0 .071.055.13.126.134h8.583z"/>
                </g>
            </g>
        </g>
    </g>
</svg>
