<svg xmlns="http://www.w3.org/2000/svg" xmlns:xlink="http://www.w3.org/1999/xlink" width="142" height="141" viewBox="0 0 142 141">
    <defs>
        <circle id="a" cx="55.27" cy="55.27" r="55.27"/>
    </defs>
    <g fill="none" fill-rule="evenodd">
        <circle cx="70.853" cy="70.5" r="70.5" fill="#F1F0F2" fill-rule="nonzero"/>
        <circle cx="70.853" cy="70.5" r="55.5" fill="#FFF" fill-rule="nonzero"/>
        <g transform="translate(15.352 15)">
            <mask id="b" fill="#fff">
                <use xlink:href="#a"/>
            </mask>
            <use fill="#FFF" fill-rule="nonzero" xlink:href="#a"/>
            <g mask="url(#b)">
                <g transform="translate(-31.614 .163)">
                    <circle cx="86.748" cy="55.337" r="55.27" fill="#DFE055" fill-rule="nonzero"/>
                    <path fill="#CCCDD0" fill-rule="nonzero" d="M0 73.05h148.098v39.288H0z"/>
                    <path fill="#99C75E" fill-rule="nonzero" d="M85.564 44.882c-20.016 1.39-35.998 13.288-38.151 28.314H.036c2.92-20.376 25.795-36.225 53.573-36.225 11.963 0 23.014 2.94 31.955 7.911z"/>
                    <path fill="#75BC7D" fill-rule="nonzero" d="M131.554 73.196H47.413c2.153-15.026 18.135-26.925 38.15-28.314a57.073 57.073 0 0 1 3.92-.133c21.817 0 39.777 12.452 42.07 28.447z"/>
                    <path fill="#FFF" fill-rule="nonzero" d="M149.944 78.644h-48.702c-.802 0-1.452-.65-1.452-1.452V36.6l25.077-12.43 25.077 12.43v42.044z"/>
                    <path fill="#CCCDD0" fill-rule="nonzero" d="M155.748 39.438a3.063 3.063 0 0 1-4.109 1.385L125.19 27.715a.744.744 0 0 0-.659 0L98.093 40.823a3.066 3.066 0 0 1-2.723-5.494l29.167-14.455a.736.736 0 0 1 .659 0l29.167 14.455a3.063 3.063 0 0 1 1.385 4.109z"/>
                    <path fill="#CCCDD0" fill-rule="nonzero" d="M118.697 41.146h5.813v5.813h-5.813zM118.697 34.108h5.813v5.813h-5.813zM125.89 41.146h5.813v5.813h-5.813zM125.756 34.108h5.813v5.813h-5.813z"/>
                    <ellipse cx="124.846" cy="64.576" fill="#FFF" fill-rule="nonzero" rx="11.113" ry="6.55"/>
                    <path fill="#ECECEC" fill-rule="nonzero" d="M136.804 64.576c0 4.091-5.354 7.409-11.958 7.409-6.605 0-11.957-3.318-11.957-7.41 0-4.09 5.353-7.41 11.957-7.41 6.603 0 11.958 3.318 11.958 7.41zm-11.958-6.55c-6.137 0-11.112 2.93-11.112 6.55 0 3.62 4.975 6.55 11.112 6.55 6.137 0 11.112-2.93 11.112-6.55 0-3.62-4.975-6.55-11.112-6.55z"/>
                    <path fill="#009640" fill-rule="nonzero" d="M121.483 64.261a.568.568 0 0 0-.335-.087c-.138-.007-.271.04-.343.12v-.375h-.192v.99h.192v-.11c.023.03.06.055.103.071a.54.54 0 0 0 .232.049.53.53 0 0 0 .367-.125.314.314 0 0 0 .104-.26c.012-.1-.034-.197-.128-.273zm-.383.544c-.295 0-.295-.228-.295-.272 0-.043 0-.288.303-.288.304 0 .296.207.296.283 0 .076-.064.293-.304.293v-.016z"/>
                    <path fill="#009640" fill-rule="nonzero" d="M121.368 63.983a.487.487 0 0 0-.363.13v-.119h-.202v.989h.194v-.353c.07.073.194.114.323.108.258 0 .483-.12.483-.385 0-.267-.241-.37-.435-.37zm.153.587a.361.361 0 0 1-.226.07c-.274 0-.298-.179-.298-.266 0-.087 0-.293.315-.293.314 0 .298.136.298.266a.306.306 0 0 1-.048.223h-.04z"/>
                    <path fill="#009640" d="M120.476 64.228a.666.666 0 0 1 .061.11.565.565 0 0 0-.061.082.471.471 0 0 0-.06-.081.814.814 0 0 1 .06-.111zM120.476 65.04a.565.565 0 0 0 .061.082.666.666 0 0 1-.061.11.814.814 0 0 1-.06-.11.471.471 0 0 0 .06-.082zM120.305 64.259a.685.685 0 0 1 .094.082.467.467 0 0 0-.028.097.429.429 0 0 0-.086-.055.7.7 0 0 1 .02-.124zM120.582 65.022a.59.59 0 0 0 .086.056.723.723 0 0 1-.02.124.766.766 0 0 1-.095-.083.4.4 0 0 0 .03-.097zM120.154 64.345c.04.012.08.028.117.047v.022a.48.48 0 0 0 0 .078.433.433 0 0 0-.097-.023.666.666 0 0 1-.02-.124zM120.682 65.046a.362.362 0 0 0 0-.077.463.463 0 0 0 .099.022c.012.04.02.081.024.123a.678.678 0 0 1-.116-.046l-.007-.022zM120.167 64.482c.01.032.023.063.04.092a.443.443 0 0 0-.1.012.768.768 0 0 1-.065-.106.583.583 0 0 1 .125.002zM120.846 64.874c.025.034.047.07.065.107a.703.703 0 0 1-.133 0 .533.533 0 0 0-.038-.092.453.453 0 0 0 .106-.015zM120.102 64.602a.4.4 0 0 0 .069.074.523.523 0 0 0-.09.045.623.623 0 0 1-.098-.077.674.674 0 0 1 .119-.042zM120.873 64.738c.035.023.067.05.097.079a.718.718 0 0 1-.119.041.469.469 0 0 0-.069-.075.412.412 0 0 0 .09-.045zM120.08 64.738a.384.384 0 0 0 .09.045.414.414 0 0 0-.068.075.674.674 0 0 1-.119-.041.7.7 0 0 1 .097-.079zM120.851 64.602c.041.01.08.024.119.042a.623.623 0 0 1-.097.077.574.574 0 0 0-.09-.045.457.457 0 0 0 .068-.074zM120.107 64.874a.063.063 0 1 1 .06.104.689.689 0 0 1-.125 0 .768.768 0 0 1 .065-.104zM120.911 64.48a.769.769 0 0 1-.065.106.453.453 0 0 0-.1-.012.577.577 0 0 0 .039-.092.597.597 0 0 1 .126-.002zM120.276 64.969a.48.48 0 0 0 0 .077v.022a.642.642 0 0 1-.117.046.685.685 0 0 1 .025-.123.433.433 0 0 0 .092-.022zM120.795 64.345a.645.645 0 0 1-.023.124.463.463 0 0 0-.099.023.362.362 0 0 0 0-.078v-.022a.71.71 0 0 1 .122-.047zM120.37 65.022a.467.467 0 0 0 .029.097.685.685 0 0 1-.094.083.723.723 0 0 1-.02-.124.59.59 0 0 0 .086-.056zM120.648 64.259a.7.7 0 0 1 .02.124.429.429 0 0 0-.086.055.4.4 0 0 0-.029-.097c.03-.03.06-.057.095-.082zM120.41 64.353c.022.025.041.052.058.08a.314.314 0 0 0-.03.079.356.356 0 0 0-.055-.063.48.48 0 0 1 .028-.096zM120.514 64.949a.35.35 0 0 0 .056.062.48.48 0 0 1-.028.096.453.453 0 0 1-.057-.081.366.366 0 0 0 .03-.077zM120.284 64.414V64.4a.56.56 0 0 1 .083.055.324.324 0 0 0 0 .051v.033a.322.322 0 0 0-.074-.04.428.428 0 0 1-.009-.084zM120.59 64.955v-.033c.021.017.046.03.072.04a.563.563 0 0 1 0 .084v.016a.56.56 0 0 1-.082-.056.324.324 0 0 0 .01-.05zM120.183 64.484a.416.416 0 0 1 .097.025.304.304 0 0 0 .027.079.334.334 0 0 0-.083-.014.517.517 0 0 1-.041-.09zM120.646 64.873a.325.325 0 0 0 .083.013c.017.029.03.059.04.09a.422.422 0 0 1-.096-.025.304.304 0 0 0-.027-.078zM120.216 64.593a.281.281 0 0 0 .052.065.312.312 0 0 0-.082.016.49.49 0 0 1-.068-.07.42.42 0 0 1 .098-.011zM120.766 64.79c.027.02.05.044.07.07a.507.507 0 0 1-.1.011.32.32 0 0 0-.051-.065.438.438 0 0 0 .081-.016zM120.183 64.686a.29.29 0 0 0 .072.044.33.33 0 0 0-.072.043.417.417 0 0 1-.09-.043.502.502 0 0 1 .09-.044zM120.77 64.686a.502.502 0 0 1 .09.044.417.417 0 0 1-.09.043.408.408 0 0 0-.072-.043.348.348 0 0 0 .072-.044z"/>
                    <path fill="#009640" d="M120.186 64.79a.474.474 0 0 0 .082.016.281.281 0 0 0-.052.065.507.507 0 0 1-.098-.01.382.382 0 0 1 .068-.07zM120.835 64.6a.435.435 0 0 1-.069.07.293.293 0 0 0-.081-.016.32.32 0 0 0 .052-.065.42.42 0 0 1 .098.01zM120.307 64.873a.304.304 0 0 0-.027.078.433.433 0 0 1-.097.026.517.517 0 0 1 .041-.091.334.334 0 0 0 .083-.013zM120.769 64.484a.433.433 0 0 1-.04.09.325.325 0 0 0-.083.014.304.304 0 0 0 .027-.079.422.422 0 0 1 .096-.025zM120.439 64.949a.306.306 0 0 0 .029.077.453.453 0 0 1-.057.081.48.48 0 0 1-.028-.096.41.41 0 0 0 .056-.062zM120.365 64.922v.083a.482.482 0 0 1-.08.057v-.016c-.001-.028.002-.056.007-.084a.322.322 0 0 0 .073-.04zM120.542 64.353a.48.48 0 0 1 .028.096.309.309 0 0 0-.056.063.377.377 0 0 0-.029-.079.497.497 0 0 1 .057-.08zM120.662 64.399v.015a.563.563 0 0 1 0 .084.296.296 0 0 0-.073.04v-.033a.324.324 0 0 0 0-.05.56.56 0 0 1 .073-.056zM120.379 64.505v-.039c.02.02.038.042.053.066a.308.308 0 0 0 0 .049v.021a.362.362 0 0 0-.05-.052.26.26 0 0 1-.003-.045zM120.53 64.88v-.023c.013.02.03.037.048.053V64.994a.294.294 0 0 1-.052-.065.308.308 0 0 0 .003-.05zM120.296 64.516c.026.01.05.025.072.042a.288.288 0 0 0 .021.068.309.309 0 0 0-.062-.032.312.312 0 0 1-.03-.078zM120.564 64.834c.02.013.04.024.062.032a.312.312 0 0 1 .031.079.293.293 0 0 1-.072-.043.368.368 0 0 0-.021-.068zM120.233 64.593a.325.325 0 0 1 .083.015c.012.02.026.04.043.057a.31.31 0 0 0-.07-.01.313.313 0 0 1-.056-.062zM120.593 64.798a.333.333 0 0 0 .072.01c.02.018.04.039.055.062a.276.276 0 0 1-.083-.016.29.29 0 0 0-.044-.056zM120.283 64.668a.288.288 0 0 0 .06.038.308.308 0 0 0-.07.016.31.31 0 0 1-.073-.041.368.368 0 0 1 .083-.013zM120.68 64.738c.026.01.05.024.073.041a.368.368 0 0 1-.083.014.242.242 0 0 0-.06-.039.325.325 0 0 0 .07-.016zM120.273 64.738a.308.308 0 0 0 .07.016.242.242 0 0 0-.06.039.368.368 0 0 1-.083-.014.266.266 0 0 1 .073-.04zM120.67 64.668a.368.368 0 0 1 .083.013.31.31 0 0 1-.073.041.325.325 0 0 0-.07-.016.288.288 0 0 0 .06-.038zM120.359 64.798a.345.345 0 0 0-.043.056.276.276 0 0 1-.083.016.313.313 0 0 1 .055-.063.31.31 0 0 0 .07-.009zM120.72 64.593a.313.313 0 0 1-.055.063.333.333 0 0 0-.072.009.266.266 0 0 0 .044-.057.325.325 0 0 1 .083-.015zM120.476 64.866a.31.31 0 0 0 .028.065.292.292 0 0 1-.028.079.342.342 0 0 1-.027-.079.249.249 0 0 0 .027-.065zM120.43 64.86v.022a.308.308 0 0 0 0 .05.302.302 0 0 1-.053.064v-.038-.045a.312.312 0 0 0 .054-.054zM120.396 64.834a.288.288 0 0 0-.021.068.293.293 0 0 1-.072.043.312.312 0 0 1 .03-.079.309.309 0 0 0 .063-.032zM120.476 64.45a.318.318 0 0 1 .028.079.31.31 0 0 0-.028.065.249.249 0 0 0-.027-.065.376.376 0 0 1 .027-.08zM120.572 64.466V64.55a.362.362 0 0 0-.05.052v-.021a.308.308 0 0 0 0-.05.294.294 0 0 1 .05-.065zM120.662 64.516a.312.312 0 0 1-.03.078.277.277 0 0 0-.063.032.368.368 0 0 0 .021-.068.257.257 0 0 1 .072-.042z"/>
                    <path fill="#009FE3" fill-rule="nonzero" d="M115.087 64.614l-.042.026a.152.152 0 0 0-.133-.074.204.204 0 0 0-.099.024.178.178 0 0 0-.07.067.182.182 0 0 0-.006.169c.012.022.03.04.052.052a.17.17 0 0 0 .08.019.234.234 0 0 0 .09-.019.185.185 0 0 0 .067-.05l.043.031a.252.252 0 0 1-.088.066.28.28 0 0 1-.11.02.212.212 0 0 1-.151-.052.19.19 0 0 1-.054-.142c0-.062.025-.123.071-.166a.245.245 0 0 1 .284-.043.186.186 0 0 1 .066.072zM115.189 64.37h.05l-.03.219a.186.186 0 0 1 .145-.073.133.133 0 0 1 .1.038.133.133 0 0 1 .04.102c0 .03-.002.061-.007.091l-.025.187h-.052l.025-.187a.694.694 0 0 0 .008-.09.092.092 0 0 0-.027-.068.095.095 0 0 0-.069-.025.133.133 0 0 0-.075.021.145.145 0 0 0-.055.057.377.377 0 0 0-.03.116l-.024.176h-.052l.078-.565zM116.428 65.496h-.12l.019-.145a.478.478 0 0 1-.36.17.4.4 0 0 1-.296-.126.464.464 0 0 1-.119-.314c0-.148.055-.29.154-.393a.489.489 0 0 1 .365-.167c.07 0 .14.017.202.05.06.039.109.093.143.158l.02-.183h.116l-.124.95zm-.449-.088a.389.389 0 0 0 .35-.217.51.51 0 0 0 .054-.23.325.325 0 0 0-.089-.242.288.288 0 0 0-.229-.094.372.372 0 0 0-.296.129.438.438 0 0 0-.119.314.325.325 0 0 0 .086.249.287.287 0 0 0 .235.09h.008z"/>
                    <path fill="#009FE3" fill-rule="nonzero" d="M116.06 64.526h.054l-.008.052a.161.161 0 0 1 .05-.045.116.116 0 0 1 .062-.017c.016 0 .032.004.047.01l-.026.048a.077.077 0 0 0-.086.012.133.133 0 0 0-.043.055.455.455 0 0 0-.03.121l-.023.172H116l.06-.408zM117.109 64.534h.098l-.101.598a.656.656 0 0 1-.06.203.347.347 0 0 1-.16.132.714.714 0 0 1-.52 0 .34.34 0 0 1-.159-.14l.102-.03a.35.35 0 0 0 .313.133.5.5 0 0 0 .203-.037.284.284 0 0 0 .122-.097.514.514 0 0 0 .043-.155v-.027a.52.52 0 0 1-.35.124.472.472 0 0 1-.29-.087.285.285 0 0 1-.114-.231c0-.07.025-.139.07-.199a.553.553 0 0 1 .429-.205c.066 0 .13.013.188.037.06.029.112.068.151.115l.035-.134zm-.34.07a.518.518 0 0 0-.208.041.348.348 0 0 0-.148.115.275.275 0 0 0-.052.164.21.21 0 0 0 .084.167c.06.046.14.07.223.064a.448.448 0 0 0 .29-.088.27.27 0 0 0 .11-.23.21.21 0 0 0-.09-.18.37.37 0 0 0-.208-.054z"/>
                    <path fill="#009FE3" fill-rule="nonzero" d="M117.688 65.04h-.86a.352.352 0 0 0 .088.267.32.32 0 0 0 .247.096c.065 0 .13-.013.19-.04a.39.39 0 0 0 .142-.115l.095.074a.511.511 0 0 1-.183.14.595.595 0 0 1-.247.053.415.415 0 0 1-.342-.14.472.472 0 0 1-.114-.31.547.547 0 0 1 .282-.475.553.553 0 0 1 .281-.074.422.422 0 0 1 .317.124.423.423 0 0 1 .12.31.448.448 0 0 1-.016.09zm-.114-.105a.307.307 0 0 0-.092-.218.32.32 0 0 0-.221-.083.427.427 0 0 0-.414.3h.727z"/>
                    <path fill="#009640" fill-rule="nonzero" d="M117.212 64.526h.05l-.008.058a.173.173 0 0 1 .061-.05.166.166 0 0 1 .074-.018c.03 0 .059.01.082.028.02.016.035.039.042.064a.206.206 0 0 1 .067-.068.164.164 0 0 1 .083-.024c.074 0 .133.06.133.133a.41.41 0 0 1 0 .064l-.03.224h-.05l.027-.196a.76.76 0 0 0 .008-.09.076.076 0 0 0-.024-.058.08.08 0 0 0-.061-.024.133.133 0 0 0-.076.025.161.161 0 0 0-.05.06.329.329 0 0 0-.02.087l-.027.196h-.054l.031-.224a.352.352 0 0 0 0-.059.083.083 0 0 0-.085-.087.119.119 0 0 0-.06.017.125.125 0 0 0-.048.038.172.172 0 0 0-.028.059c0 .024-.01.045-.013.064l-.026.192h-.052l.054-.41zM118.721 65.496h-.118l.018-.145a.474.474 0 0 1-.357.17.386.386 0 0 1-.295-.126.455.455 0 0 1-.12-.314c-.001-.149.055-.29.156-.393a.479.479 0 0 1 .362-.167c.07 0 .137.017.198.05.06.039.108.093.142.158l.02-.183h.121l-.127.95zm-.445-.088a.385.385 0 0 0 .348-.217.48.48 0 0 0 .056-.23.326.326 0 0 0-.088-.242.302.302 0 0 0-.23-.094.37.37 0 0 0-.296.129.453.453 0 0 0-.118.314.327.327 0 0 0 .086.249.285.285 0 0 0 .233.09h.009z"/>
                    <path fill="#009640" fill-rule="nonzero" d="M118.57 64.572l-.03.042a.099.099 0 0 0-.08-.049.067.067 0 0 0-.047.019.05.05 0 0 0-.019.038c0 .012.005.023.012.032.015.016.032.03.05.04.03.017.057.04.078.067.013.02.02.042.019.065a.112.112 0 0 1-.036.085.133.133 0 0 1-.093.034.158.158 0 0 1-.134-.067l.032-.037c.023.032.06.052.099.054.02 0 .04-.007.053-.021a.067.067 0 0 0 .023-.05.068.068 0 0 0-.018-.043.284.284 0 0 0-.058-.046.284.284 0 0 1-.067-.058.101.101 0 0 1 .017-.13.123.123 0 0 1 .087-.031c.02 0 .039.004.056.013.021.01.04.025.056.043zM118.703 64.375h.052l-.02.151h.081v.046h-.082l-.048.362h-.052l.048-.362h-.07v-.046h.07zM119.797 65.04h-.862a.365.365 0 0 0 .089.267.318.318 0 0 0 .246.096.422.422 0 0 0 .334-.155l.092.074a.485.485 0 0 1-.183.14.592.592 0 0 1-.246.053.413.413 0 0 1-.341-.14.473.473 0 0 1-.114-.31.548.548 0 0 1 .281-.475.56.56 0 0 1 .28-.074.42.42 0 0 1 .44.434.382.382 0 0 0-.016.09zm-.114-.105a.308.308 0 0 0-.095-.218.318.318 0 0 0-.22-.083.424.424 0 0 0-.414.3h.729z"/>
                    <path fill="#009640" fill-rule="nonzero" d="M119.3 64.526h.053v.052a.133.133 0 0 1 .05-.045.112.112 0 0 1 .107-.007l-.025.048a.077.077 0 0 0-.087.012.133.133 0 0 0-.042.055.455.455 0 0 0-.03.121l-.022.172h-.052l.048-.408zM114.622 64.657c.068-.082.206-.129.347-.117a.556.556 0 0 1 .321.083c.09.075.135.168.127.263a.303.303 0 0 1-.101.251.545.545 0 0 1-.364.118.617.617 0 0 1-.237-.045.256.256 0 0 1-.102-.067v.1h-.194v-.988h.194l.009.402zm.296-.034c-.296 0-.296.235-.296.274 0 .04 0 .263.287.263.288 0 .305-.157.305-.269 0-.111-.05-.268-.296-.268z"/>
                    <path fill="#009640" fill-rule="nonzero" d="M114.596 64.451v-.115h.196v.115a.513.513 0 0 1 .368-.127c.222 0 .436.104.436.37s-.23.381-.479.381a.45.45 0 0 1-.325-.104v.353h-.196v-.873zm.487.526a.328.328 0 0 0 .222-.07.302.302 0 0 0 .086-.219c0-.127-.052-.266-.29-.266-.24 0-.317.226-.317.29 0 .063.026.265.282.265h.017z"/>
                    <rect width="1.964" height="6.59" x="130.564" y="61.281" fill="#999" fill-rule="nonzero" rx=".982"/>
                    <circle cx="131.547" cy="62.201" r="1" fill="#DFAC00" fill-rule="nonzero"/>
                    <circle cx="131.547" cy="66.496" r="1" fill="#ECECEC" fill-rule="nonzero"/>
                    <ellipse cx="124.846" cy="64.576" fill="#FFF" fill-rule="nonzero" stroke="#E6E6E6" stroke-width="6" rx="2.754" ry="3.48"/>
                    <path fill="#009FE3" fill-rule="nonzero" d="M126.457 65.459l.194-.561c0-.03-.018-.06-.053-.083l-.235-.154a.037.037 0 0 0-.025-.003c-.009.002-.014.007-.015.012l.134.789zm0 0l-.115.006c-.091-.45-.234-1.105-.258-1.26-.004-.02.017-.038.05-.045l.325-.07c.182-.04.302-.138.303-.248v-.28c.05.056.092.114.124.175.351.635.19 1.169-.134 1.482-.054.055-.29.285-.29.285l-.005-.045z"/>
                    <path fill="#999" fill-rule="nonzero" d="M126.472 63.565v.28c0 .11-.07.208-.172.247l-.185.07a.043.043 0 0 0-.028.046l.146 1.26c.012.101.023.19.03.266.052.444.01.502-.07.544a.16.16 0 0 1-.148-.026.024.024 0 0 0-.034.03c.041.106.121.306.177.425a.771.771 0 0 1 .056.36c-.032.119-.067.23-.1.336a.908.908 0 0 1-.306.448.774.774 0 0 1-.39.16l.017-1.171c0-.163-.275-.297-.615-.303-.341-.005-.622.124-.624.285l-.016 1.188c-.08-.01-.16-.026-.237-.049a.762.762 0 0 1-.252-.133.922.922 0 0 1-.294-.457 6.338 6.338 0 0 1-.09-.335.751.751 0 0 1 .066-.359c.059-.118.144-.314.19-.42a.024.024 0 0 0-.035-.03.165.165 0 0 1-.15.021c-.077-.044-.117-.103-.054-.544l.03-.22c.066-.45.164-1.14.188-1.297a.045.045 0 0 0-.026-.047l-.184-.076a.266.266 0 0 1-.165-.251v-.281c.195-.368.579-.596.995-.592l.735.01.564.007c.415.005.792.239.98.608z"/>
                    <path fill="#999" fill-rule="nonzero" d="M126.406 64.898l-.11.56-.081-.788a.013.013 0 0 1 .022-.01l.133.155a.124.124 0 0 1 .036.083z"/>
                    <path fill="#009FE3" fill-rule="nonzero" d="M126.3 65.507c.036.268.058.538.064.808a3.749 3.749 0 0 1-.125.747.771.771 0 0 0-.056-.36c-.056-.118-.134-.318-.177-.424a.024.024 0 0 1 .034-.03.16.16 0 0 0 .148.026c.08-.042.121-.1.07-.544-.007-.072-.018-.16-.03-.266l.065-.007.007.05z"/>
                    <path fill="#666" fill-rule="nonzero" d="M125.444 68.056l-.014 1.132a1.015 1.015 0 0 0-.59-.213c-.217.002-.43.06-.618.171l-.017-1.092v-.042l.016-1.188c0-.161.28-.29.623-.285.342.004.617.133.616.302l-.016 1.172v.043z"/>
                    <path fill="#009FE3" fill-rule="nonzero" d="M123.554 66.215a.024.024 0 0 1 .034.03 14.76 14.76 0 0 1-.189.42.751.751 0 0 0-.065.359 3.656 3.656 0 0 1-.107-.752c.014-.27.043-.54.087-.807l.067.01-.031.22c-.063.44-.023.5.055.544.05.017.106.008.149-.024zM123.566 65.379l.173-.746c0-.005-.005-.01-.014-.012a.036.036 0 0 0-.024.003l-.244.15c-.035.023-.055.052-.057.083l.166.522zm-.02.084s-.228-.235-.272-.288c-.298-.318-.43-.855-.059-1.485a.843.843 0 0 1 .13-.173v.28c-.004.11.109.21.283.253l.314.075c.031.009.05.027.046.047-.041.157-.21.847-.322 1.297l-.12-.006z"/>
                    <path fill="#999" fill-rule="nonzero" d="M123.405 64.624a.013.013 0 0 1 .022.009l-.101.746-.097-.522a.133.133 0 0 1 .033-.083l.143-.15z"/>
                    <path fill="#666" fill-rule="nonzero" d="M125.675 65.107l-.586-.052a2.995 2.995 0 0 0-.532 0l-.586.052a.056.056 0 0 1-.055-.06l.076-.72a.053.053 0 0 1 .053-.05l.573-.038c.133-.008.266-.008.4 0l.572.038c.028 0 .051.022.053.05l.082.724a.056.056 0 0 1-.05.056z"/>
                    <circle cx="131.555" cy="63.107" r="1" fill="#009640" fill-rule="nonzero"/>
                    <circle cx="131.555" cy="64.011" r="1" fill="#BD1622" fill-rule="nonzero"/>
                    <path fill="#009640" fill-rule="nonzero" stroke="#009640" stroke-width="2" d="M125.163 69.072c-.383 3.463-1.933 6.792-4.458 9.526-2.93 3.166-6.77 5.102-10.818 5.453a15.47 15.47 0 0 1-1.315.056c-3.914 0-7.811-1.49-10.863-4.19a19.32 19.32 0 0 1-4.13-5.206 24.106 24.106 0 0 1-1.16-2.587c-.597-1.491-1.162-2.9-2.209-4.058-2.178-2.405-5.151-2.077-7.034-1.065-2.086 1.12-3.847 3.596-3.08 6.604l-.773.197c-.875-3.425 1.116-6.238 3.476-7.506 2.814-1.511 5.954-1.026 8.003 1.235 1.144 1.262 1.762 2.806 2.36 4.298.323.854.697 1.688 1.118 2.498a18.512 18.512 0 0 0 3.96 4.993c3.23 2.857 7.458 4.293 11.587 3.936 3.849-.332 7.506-2.18 10.299-5.194 2.406-2.603 3.883-5.77 4.248-9.057a.99.99 0 0 1 .788.067z"/>
                    <path fill="#FFF" fill-rule="nonzero" d="M89.116 78.143l-.018 2.74c0 .617-.029 1.3-.45 1.752-.465.5-1.23.533-1.912.533l-5.993.016c-.02-1.809-.048-3.672-.76-5.328-1.052-2.453-3.642-4.163-6.311-4.164-2.669-.001-5.26 1.705-6.316 4.156-.723 1.683-.745 3.571-.736 5.401l-31.726.136c-.246 0-.525-.013-.685-.2-.16-.186-.133-.447-.108-.684.234-2.24-.194-4.633-1.618-6.375-2.071-2.53-6.094-3.093-8.88-1.385-2.787 1.71-4.121 5.39-3.26 8.545-1.544.456-3.196-.078-4.71-.608-2.264-.787-4.81-1.865-5.556-4.114-.018-.05-.032-.099-.047-.148-.384-1.32-.041-2.729.302-4.06l.308-1.191c.363-1.408.4-4.229 1.983-4.851 2.49-.975 5.524-.6 8.124-1.137 2.035-.419 3.44-1.066 5.396-1.761 11.844-4.207 26.23-4.359 36.882 2.31.993.62 1.962 1.3 3.064 1.707 1.331.497 2.78.564 4.197.696 2.532.235 5.038.686 7.492 1.35v-4.662a.084.084 0 0 1 .133-.07l.631.422a.084.084 0 0 1 .038.07v4.467c3.119.902 6.13 2.14 8.981 3.695.47.254.951.532 1.234.99.317.508.323 1.147.32 1.752z"/>
                    <path fill="#CCCDD0" fill-rule="nonzero" d="M64.747 80.495c-.122.686-.246 1.222-.327 1.606a.666.666 0 0 1-.675.52l-25.666-.461a.932.932 0 0 1-.748-.4l-1.043-1.51 28.427.245h.032z"/>
                    <path fill="#666" fill-rule="nonzero" d="M88.721 80.264c-.013.588-.04 1.435-.078 1.539a.148.148 0 0 1-.233.06l-1.332-1.187c-.31-.3-.513-.696-.575-1.124l-.095-.64a.266.266 0 0 1 .345-.283l1.534.72c.282.22.443.559.434.915z"/>
                    <path fill="#CCCDD0" fill-rule="nonzero" d="M88.423 77.951a.305.305 0 0 1-.427.301l-3.619-1.389a.4.4 0 0 1-.224-.256l-.494-1.718a.276.276 0 0 1 .412-.266s3.8 2.061 3.85 2.108c.26.176.43.455.47.766l.032.454z"/>
                    <path fill="#FFF" fill-rule="nonzero" d="M65.006 71.058c.553 4.261.21 7.387-.133 9.322h-.032l-17.58-.168a77.54 77.54 0 0 0-.749-9.999l18.494.845z"/>
                    <path fill="#CCCDD0" fill-rule="nonzero" d="M64.67 70.928l-18.047-.848a.298.298 0 0 1-.275-.249c-.563-2.854-.873-4.87-1.065-5.643a.29.29 0 0 1 .282-.36 30.412 30.412 0 0 1 15.716 4.368l1.44.932c.64.414 1.313.799 1.93 1.249.112.07.186.187.2.318 0 .114-.045.239-.18.233z"/>
                    <path fill="#FFF" fill-rule="nonzero" d="M46.48 80.192l-10.454-.1-7.543-10.932c.18.162.41.257.652.266l16.597.763a77.54 77.54 0 0 1 .748 10.003z"/>
                    <path fill="#CCCDD0" fill-rule="nonzero" d="M45.573 69.84a.188.188 0 0 1-.194.213l-8.971-.411-4.599-.212c-1.181-.055-2.76.188-3.729-.623-.474-.4-.906-.862-1.356-1.285-.52-.49-.277-.746.295-.969 5.383-2.107 11.233-2.855 17.013-2.727a.39.39 0 0 1 .479.363c.438 1.868.792 3.751 1.062 5.651zM17.379 73.267v.382c0 .17-.139.31-.31.31h-5.374a.266.266 0 0 1-.267-.267v-2.66c.001-.137.112-.247.25-.247h1.575c.48 0 .948.145 1.345.415l2.646 1.813a.309.309 0 0 1 .135.254z"/>
                    <path fill="#666" fill-rule="nonzero" d="M73.71 74.24a6.433 6.433 0 1 1 0 12.866 6.433 6.433 0 0 1 0-12.865z"/>
                    <circle cx="73.711" cy="80.673" r="4.027" fill="#FFF" fill-rule="nonzero"/>
                    <path fill="#CCCDD0" fill-rule="nonzero" d="M74.904 77.558a.075.075 0 0 1 .04.108l-.52.903-.63 1.09a.073.073 0 0 1-.134 0l-.627-1.09-.524-.903a.075.075 0 0 1 .04-.108 3.768 3.768 0 0 1 2.35 0h.005zM71.61 78.082a.075.075 0 0 1 .113.02l.521.901.63 1.09a.075.075 0 0 1-.064.111H70.51a.075.075 0 0 1-.073-.087c.163-.787.574-1.5 1.174-2.035zM70.416 81.197a.075.075 0 0 1 .073-.09h2.303a.073.073 0 0 1 .062.111l-.63 1.088-.52.904a.073.073 0 0 1-.114.019 3.768 3.768 0 0 1-1.174-2.034v.002zM72.516 83.787a.075.075 0 0 1-.04-.108l.52-.903.63-1.09a.073.073 0 0 1 .134 0l.627 1.09.524.903a.075.075 0 0 1-.04.108c-.764.25-1.587.25-2.35 0h-.005zM75.81 83.264a.076.076 0 0 1-.114-.019l-.52-.903-.63-1.09a.075.075 0 0 1 .064-.111h2.3a.076.076 0 0 1 .075.089 3.768 3.768 0 0 1-1.174 2.034zM77.004 80.15a.075.075 0 0 1-.073.088H74.63a.073.073 0 0 1-.064-.11l.63-1.089.52-.904a.075.075 0 0 1 .113-.02 3.765 3.765 0 0 1 1.175 2.035z"/>
                    <circle cx="73.711" cy="80.673" r="1" fill="#CCCDD0" fill-rule="nonzero"/>
                    <path fill="#666" fill-rule="nonzero" d="M27.237 74.24a6.433 6.433 0 1 1 0 12.866 6.433 6.433 0 0 1 0-12.865z"/>
                    <circle cx="27.237" cy="80.673" r="4.027" fill="#FFF" fill-rule="nonzero"/>
                    <path fill="#CCCDD0" fill-rule="nonzero" d="M28.43 77.558a.075.075 0 0 1 .04.108l-.52.903-.63 1.09a.073.073 0 0 1-.134 0l-.627-1.09-.523-.903a.076.076 0 0 1 .04-.108 3.768 3.768 0 0 1 2.349 0h.005zM25.137 78.082a.075.075 0 0 1 .113.02l.52.901.63 1.09a.073.073 0 0 1-.063.111h-2.302a.075.075 0 0 1-.073-.087c.164-.787.576-1.5 1.175-2.035zM23.942 81.197a.075.075 0 0 1 .073-.09h2.303a.073.073 0 0 1 .063.111l-.63 1.088-.52.904a.076.076 0 0 1-.114.019 3.768 3.768 0 0 1-1.175-2.034v.002zM26.044 83.787a.075.075 0 0 1-.042-.108l.522-.903.63-1.09a.073.073 0 0 1 .134 0l.628 1.09.522.903a.075.075 0 0 1-.04.108c-.762.25-1.585.25-2.348 0h-.006zM29.337 83.264a.075.075 0 0 1-.113-.019l-.522-.903-.629-1.09a.073.073 0 0 1 .063-.111h2.303a.075.075 0 0 1 .073.089 3.768 3.768 0 0 1-1.175 2.034zM30.53 80.15a.075.075 0 0 1-.073.088h-2.301a.073.073 0 0 1-.064-.11l.63-1.089.52-.904a.075.075 0 0 1 .114-.02 3.765 3.765 0 0 1 1.174 2.035z"/>
                    <circle cx="27.237" cy="80.673" r="1" fill="#B3B3B3" fill-rule="nonzero"/>
                    <circle cx="55.908" cy="25.542" r="4.191" fill="#99C75E" fill-rule="nonzero"/>
                    <path fill="#55B163" fill-rule="nonzero" stroke="#55B163" stroke-width=".5" d="M55.847 24.725h.124a.096.096 0 0 1 .096.096v15.582h-.315V24.821a.096.096 0 0 1 .096-.096h-.001z"/>
                    <path fill="#55B163" fill-rule="nonzero" stroke="#55B163" stroke-width=".5" d="M55.8 26.04l-.87-.87a.09.09 0 1 1 .127-.127l.87.87a.09.09 0 1 1-.127.127zM55.801 27.524l-.87-.87a.09.09 0 1 1 .127-.127l.87.87a.09.09 0 1 1-.127.127zM55.8 29.01l-.87-.87a.09.09 0 0 1 .127-.127l.87.87a.09.09 0 0 1-.127.127zM55.952 25.272l.87-.87a.09.09 0 1 1 .127.127l-.87.87a.09.09 0 1 1-.127-.127zM55.951 26.758l.87-.87a.09.09 0 0 1 .127.127l-.87.87a.09.09 0 1 1-.127-.127zM55.95 28.242l.87-.87a.09.09 0 0 1 .127.127l-.87.87a.09.09 0 0 1-.127-.127z"/>
                    <circle cx="67.622" cy="21.333" r="4.086" fill="#99C75E" fill-rule="nonzero"/>
                    <path fill="#55B163" fill-rule="nonzero" stroke="#55B163" stroke-width=".5" d="M67.562 20.537h.12c.05 0 .093.041.093.093v20.99h-.307V20.63c0-.052.042-.093.094-.093z"/>
                    <path fill="#55B163" fill-rule="nonzero" stroke="#55B163" stroke-width=".5" d="M67.516 21.819l-.85-.85a.087.087 0 1 1 .123-.123l.85.85a.087.087 0 1 1-.123.123zM67.516 23.267l-.849-.85a.087.087 0 1 1 .123-.123l.85.85a.087.087 0 1 1-.123.123zM67.517 24.714l-.85-.85a.087.087 0 1 1 .123-.123l.85.85a.087.087 0 1 1-.123.123zM67.663 21.07l.849-.85a.087.087 0 1 1 .123.123l-.85.85a.087.087 0 1 1-.123-.123zM67.662 22.519l.85-.85a.087.087 0 1 1 .123.123l-.85.85a.087.087 0 1 1-.123-.123zM67.663 23.966l.85-.85a.087.087 0 1 1 .123.123l-.85.85a.087.087 0 1 1-.123-.123z"/>
                </g>
            </g>
        </g>
    </g>
</svg>
