<svg xmlns="http://www.w3.org/2000/svg" xmlns:xlink="http://www.w3.org/1999/xlink" width="24" height="24" viewBox="0 0 24 24">
    <defs>
        <path id="a" d="M 14.1 12 l 6.4 -6.4 l 1.3 -1.3 a 0.5 0.5 0 0 0 0 -0.7 L 20.4 2.1 a 0.5 0.5 0 0 0 -0.7 0 L 12 9.9 L 4.3 2.1 a 0.5 0.5 0 0 0 -0.7 0 L 2.1 3.6 a 0.5 0.5 0 0 0 0 0.7 L 9.9 12 l -7.7 7.7 a 0.5 0.5 0 0 0 0 0.7 l 1.4 1.4 a 0.5 0.5 0 0 0 0.7 0 L 12 14.1 l 6.4 6.4 l 1.3 1.3 a 0.5 0.5 0 0 0 0.7 0 l 1.4 -1.4 a 0.5 0.5 0 0 0 0 -0.7 L 14.1 12 z"/>
    </defs>
    <g fill="none" fill-rule="evenodd">
        <mask id="b" fill="#fff">
            <use transform="matrix(1,0,0,1,0,0)" xlink:href="#a"/>
        </mask>
        <g fill="#000000" fill-opacity=".54" mask="url(#b)">
            <path transform="matrix(4.8,0,0,3.8,-65.7,-48.6)" d="M 13.8 12.7 h 24 v 24 H 13.8 z"/>
        </g>
    </g>
</svg>
