<svg xmlns="http://www.w3.org/2000/svg" xmlns:xlink="http://www.w3.org/1999/xlink" width="24" height="24" viewBox="0 0 24 24">
    <defs>
        <path id="a" d="M12 2.42c5.261 0 9.58 4.26 9.58 9.58A9.578 9.578 0 0 1 12 21.58 9.578 9.578 0 0 1 2.42 12c0-5.287 4.284-9.58 9.58-9.58zM12 1C5.925 1 1 5.927 1 12c0 6.076 4.925 11 11 11s11-4.924 11-11c0-6.073-4.925-11-11-11zm-1.597 15.258h.532v-5.323h-.532a.532.532 0 0 1-.532-.532v-.355c0-.294.238-.532.532-.532h2.13c.293 0 .532.238.532.532v6.21h.532c.294 0 .532.238.532.532v.355a.532.532 0 0 1-.532.532h-3.194a.532.532 0 0 1-.532-.532v-.355c0-.294.238-.532.532-.532zM12 5.613a1.42 1.42 0 1 0 0 2.839 1.42 1.42 0 0 0 0-2.84z"/>
    </defs>
    <g fill="none" fill-rule="evenodd">
        <mask id="b" fill="#fff">
            <use xlink:href="#a"/>
        </mask>
        <g fill="#06aeef" mask="url(#b)">
            <path d="M0 0h24v24H0z"/>
        </g>
    </g>
</svg>
