<svg xmlns="http://www.w3.org/2000/svg" xmlns:xlink="http://www.w3.org/1999/xlink" width="324" height="66" viewBox="0 0 324 66">
    <defs>
        <path id="a" d="M.063.219h8.239v12.085H.063z"/>
        <path id="c" d="M.168.183H8.42v12.121H.168z"/>
        <path id="e" d="M.018.206h5.95V9.62H.017z"/>
    </defs>
    <g fill="none" fill-rule="evenodd">
        <g transform="translate(305.365 .407)">
            <mask id="b" fill="#fff">
                <use xlink:href="#a"/>
            </mask>
            <path fill="#00A550" d="M4.097 11.132c-2.412 0-2.412-2.707-2.412-3.276 0-.552 0-3.449 2.48-3.449 2.26 0 2.43 2.5 2.43 3.362 0 1.414-.499 3.363-2.498 3.363m3.188-6.725c-.792-.897-1.878-1.104-2.74-1.104-1.965 0-2.604 1.087-2.826 1.483V.218H.099v10.414l-.036 1.552H1.63l.036-1.311c.173.259.362.552.846.88.741.5 1.516.551 1.93.551 1.188 0 2.343-.5 3.034-1.483.431-.568.826-1.483.826-3.156 0-1.896-.585-2.758-1.017-3.258" mask="url(#b)"/>
        </g>
        <g transform="translate(314.69 3.613)">
            <mask id="d" fill="#fff">
                <use xlink:href="#c"/>
            </mask>
            <path fill="#00A550" d="M6.027 7.27c-.552.759-1.415.845-1.827.845-2.274 0-2.43-2.156-2.43-3.207 0-.777 0-3.518 2.584-3.518 1.914 0 2.38 1.621 2.38 3.173 0 .62-.086 1.862-.707 2.707M4.786.183C4.08.183 2.648.39 1.84 1.752L1.805.322H.168c.034.827.052 1.034.052 1.412v10.57h1.603V8.011c.463.759 1.394 1.293 2.651 1.293 2.07 0 3.947-1.413 3.947-4.638C8.421 1.46 6.648.183 4.786.183" mask="url(#d)"/>
        </g>
        <path fill="#00A550" d="M298.74 15.919c.69 1.038 1.927 2.99 2.976 5.418a24.25 24.25 0 0 0-2.976 3.996 24.05 24.05 0 0 0-2.973-3.996c1.048-2.428 2.289-4.381 2.973-5.418"/>
        <g transform="translate(295.75 55.796)">
            <mask id="f" fill="#fff">
                <use xlink:href="#e"/>
            </mask>
            <path fill="#00A550" d="M2.99.206a24.326 24.326 0 0 0 2.977 3.996C4.92 6.632 3.68 8.585 2.99 9.62 2.306 8.582 1.065 6.631.018 4.202 1.202 2.9 2.196 1.562 2.99.206" mask="url(#f)"/>
        </g>
        <path fill="#00A550" d="M290.282 17.411c1 .742 2.834 2.151 4.648 4.076a23.981 23.981 0 0 0-1.43 4.772 23.98 23.98 0 0 0-4.161-2.737c.153-2.642.652-4.9.943-6.11M303.984 55.08c1.21 1 2.604 1.918 4.16 2.735-.151 2.64-.651 4.898-.941 6.112-1-.744-2.832-2.153-4.65-4.077a23.973 23.973 0 0 0 1.431-4.77M282.841 21.71c1.193.353 3.397 1.049 5.76 2.238a23.253 23.253 0 0 0 .283 4.97c-1.48-.523-3.099-.912-4.84-1.144-.759-2.534-1.061-4.826-1.203-6.065M308.91 56.25c0-1.342-.11-2.62-.31-3.833 1.478.524 3.1.913 4.839 1.144.76 2.536 1.063 4.827 1.203 6.064-1.196-.351-3.398-1.049-5.76-2.236.016-.383.029-.766.029-1.138M283.498 28.428a24.044 24.044 0 0 0 1.966 4.565c-1.57.013-3.227.21-4.94.588-1.58-2.122-2.649-4.173-3.203-5.288 1.24-.076 3.548-.174 6.177.135M316.96 47.754c1.58 2.125 2.65 4.174 3.205 5.288-1.242.076-3.551.174-6.18-.132a24.102 24.102 0 0 0-1.964-4.57c1.565-.008 3.226-.207 4.939-.586M280.233 34.38a23.947 23.947 0 0 0 3.414 3.625c-1.472.547-2.964 1.296-4.448 2.237-2.21-1.454-3.914-3.012-4.816-3.873 1.14-.495 3.277-1.379 5.85-1.99M318.285 41.092c2.208 1.453 3.912 3.015 4.818 3.873-1.142.497-3.28 1.38-5.854 1.99a23.757 23.757 0 0 0-3.415-3.623c1.474-.55 2.965-1.298 4.451-2.24M279.2 41.092a24.048 24.048 0 0 0 4.447 2.24 23.993 23.993 0 0 0-3.414 3.622c-2.573-.609-4.71-1.492-5.85-1.989.902-.858 2.606-2.417 4.816-3.873M317.25 34.378c2.574.612 4.711 1.494 5.853 1.991-.906.858-2.61 2.419-4.818 3.874-1.486-.942-2.977-1.69-4.45-2.238a23.637 23.637 0 0 0 3.414-3.627M280.525 47.754c1.712.379 3.369.578 4.94.587a24.031 24.031 0 0 0-1.967 4.568c-2.629.307-4.938.209-6.177.133.555-1.116 1.623-3.163 3.204-5.288M320.165 28.293c-.555 1.115-1.625 3.166-3.205 5.288-1.714-.377-3.375-.575-4.94-.588a24.099 24.099 0 0 0 1.965-4.567c2.629-.307 4.938-.209 6.18-.133M288.885 52.417a23.32 23.32 0 0 0-.283 4.972c-2.365 1.187-4.566 1.885-5.76 2.236.14-1.237.443-3.528 1.203-6.064 1.738-.23 3.359-.62 4.84-1.144M314.642 21.71c-.14 1.237-.444 3.53-1.203 6.064-1.737.231-3.361.62-4.84 1.145a23.35 23.35 0 0 0 .282-4.97c2.363-1.19 4.565-1.886 5.761-2.24M293.499 55.08a24.064 24.064 0 0 0 1.431 4.77c-1.814 1.924-3.648 3.333-4.648 4.075-.291-1.214-.79-3.47-.943-6.11a24.121 24.121 0 0 0 4.16-2.736M307.203 17.41c.288 1.21.79 3.47.941 6.112a23.985 23.985 0 0 0-4.16 2.737 24.054 24.054 0 0 0-1.432-4.772c1.819-1.926 3.65-3.335 4.65-4.078M295.466 22.083c1.151 1.293 2.117 2.624 2.869 3.967a16.757 16.757 0 0 0-1.491 3.844 16.817 16.817 0 0 0-2.716-3.101c.247-1.52.699-3.1 1.338-4.71M300.64 51.442a16.713 16.713 0 0 0 2.718 3.1c-.248 1.52-.703 3.101-1.34 4.712-1.151-1.297-2.12-2.627-2.869-3.97a16.783 16.783 0 0 0 1.491-3.842M289.288 25.09c0-.253.013-.51.02-.768 1.526.824 2.888 1.745 4.054 2.75a17.63 17.63 0 0 0-.185 2.469c0 .562.04 1.11.097 1.652a16.83 16.83 0 0 0-3.613-1.986 22 22 0 0 1-.373-4.118M304.306 51.794c0-.562-.04-1.107-.097-1.654a16.77 16.77 0 0 0 3.614 1.99c.244 1.287.37 2.666.37 4.12 0 .25-.011.508-.017.762-1.527-.821-2.888-1.742-4.056-2.747.12-.838.186-1.664.186-2.47M284.292 28.538c1.714.252 3.308.65 4.746 1.193a16.759 16.759 0 0 0 1.328 3.907 16.735 16.735 0 0 0-4.074-.634c-.787-1.321-1.455-2.824-2-4.466M307.116 47.698c1.275.37 2.637.582 4.074.634.79 1.32 1.455 2.823 2.002 4.468-1.714-.251-3.308-.65-4.748-1.197a16.612 16.612 0 0 0-1.328-3.905M285.882 33.709a16.87 16.87 0 0 0 2.585 3.219c-1.323.09-2.677.355-4.042.8-1.191-.972-2.334-2.156-3.41-3.516 1.696-.348 3.333-.523 4.867-.503M313.06 43.607c1.192.972 2.332 2.157 3.41 3.518-1.696.348-3.333.524-4.867.503a17.071 17.071 0 0 0-2.585-3.22 16.663 16.663 0 0 0 4.042-.801M284.283 38.531c1.13.885 2.31 1.599 3.525 2.14a16.564 16.564 0 0 0-3.525 2.133c-1.452-.505-2.932-1.228-4.404-2.134 1.472-.912 2.952-1.633 4.404-2.139M313.2 38.531c1.455.506 2.93 1.227 4.404 2.137-1.473.908-2.953 1.63-4.403 2.136a16.553 16.553 0 0 0-3.527-2.134 16.806 16.806 0 0 0 3.527-2.139M284.425 43.607c1.364.446 2.719.71 4.042.8-.956.926-1.825 2-2.585 3.221-1.536.02-3.172-.155-4.867-.503 1.076-1.36 2.219-2.546 3.41-3.518M316.47 34.212c-1.078 1.36-2.218 2.541-3.41 3.515a16.73 16.73 0 0 0-4.042-.8c.954-.924 1.822-1.999 2.585-3.218 1.534-.02 3.171.155 4.867.503M290.367 47.698a16.719 16.719 0 0 0-1.329 3.905c-1.44.547-3.034.946-4.746 1.197.545-1.645 1.213-3.147 2-4.468a16.814 16.814 0 0 0 4.075-.634M313.193 28.536c-.548 1.645-1.213 3.147-2.003 4.468a16.721 16.721 0 0 0-4.074.634 16.639 16.639 0 0 0 1.328-3.908c1.44-.546 3.036-.943 4.749-1.194M296.843 51.442a16.729 16.729 0 0 0 1.491 3.842c-.752 1.343-1.717 2.676-2.868 3.97-.64-1.61-1.09-3.189-1.338-4.711 1.067-.96 1.975-2 2.715-3.1M293.274 50.14a15.869 15.869 0 0 0-.097 1.656c0 .805.066 1.63.184 2.469-1.166 1.005-2.528 1.926-4.052 2.747-.008-.254-.02-.512-.02-.764 0-1.452.127-2.83.373-4.118 1.33-.54 2.54-1.205 3.612-1.99M302.017 22.082c.638 1.61 1.093 3.19 1.34 4.709a16.865 16.865 0 0 0-2.717 3.103 16.799 16.799 0 0 0-1.49-3.844c.749-1.342 1.717-2.674 2.867-3.968M308.173 24.322c.009.258.02.514.02.765 0 1.452-.125 2.833-.37 4.12a16.798 16.798 0 0 0-3.614 1.988c.056-.544.097-1.09.097-1.654 0-.805-.066-1.633-.186-2.471 1.168-1.004 2.53-1.924 4.053-2.748M293.895 29.541c0-.612.048-1.24.12-1.872 1.046.996 1.927 2.071 2.613 3.21a14.03 14.03 0 0 0-.22 2.448c0 .354.023.71.05 1.063a14.12 14.12 0 0 0-2.386-2.58 14.623 14.623 0 0 1-.177-2.269M301.077 48.009c0-.357-.025-.709-.053-1.065a14.188 14.188 0 0 0 2.387 2.583c.116.732.178 1.488.178 2.267 0 .614-.048 1.24-.12 1.873-1.047-.997-1.928-2.071-2.615-3.21.144-.811.223-1.63.223-2.448M289.855 30.072c1.323.577 2.519 1.284 3.555 2.12a14.135 14.135 0 0 0 1.04 3.362 13.927 13.927 0 0 0-3.125-1.61c-.642-1.166-1.132-2.468-1.47-3.872M303.032 45.782a13.981 13.981 0 0 0 3.127 1.61c.643 1.166 1.131 2.466 1.471 3.873-1.325-.578-2.523-1.287-3.555-2.122a14.12 14.12 0 0 0-1.043-3.36M286.768 33.752c1.444.09 2.808.346 4.065.775a14.084 14.084 0 0 0 2.128 2.803 14.052 14.052 0 0 0-3.495-.451c-.999-.871-1.9-1.926-2.698-3.127M304.521 44.006c1.142.292 2.31.45 3.498.45.999.872 1.899 1.924 2.696 3.129-1.44-.09-2.808-.346-4.066-.778a13.998 13.998 0 0 0-2.128-2.801M289.212 37.604c.903.757 1.89 1.391 2.948 1.9a14.078 14.078 0 0 0-3.422.782c-1.24-.479-2.45-1.16-3.612-2.02 1.386-.41 2.758-.637 4.086-.662M308.743 41.049c1.242.48 2.451 1.162 3.613 2.022-1.386.409-2.756.637-4.084.66a14.123 14.123 0 0 0-2.952-1.9 13.931 13.931 0 0 0 3.423-.782M288.738 41.049c1.11.405 2.254.665 3.425.784a14.047 14.047 0 0 0-2.951 1.899c-1.331-.024-2.7-.252-4.086-.66 1.162-.861 2.373-1.543 3.612-2.023M308.272 37.604c1.328.025 2.698.253 4.084.661-1.16.86-2.371 1.542-3.613 2.021a14.015 14.015 0 0 0-3.423-.782 14.012 14.012 0 0 0 2.952-1.9M292.963 44.007a13.959 13.959 0 0 0-2.13 2.8c-1.257.432-2.62.688-4.065.778.798-1.203 1.7-2.257 2.698-3.13 1.185 0 2.352-.157 3.497-.448M310.715 33.752c-.798 1.2-1.697 2.256-2.696 3.127-1.189 0-2.357.159-3.498.451a14.045 14.045 0 0 0 2.128-2.803c1.258-.43 2.625-.685 4.066-.775M298.74 47.347a14.29 14.29 0 0 0 1.362 3.243c-.255 1.306-.718 2.616-1.362 3.912-.642-1.296-1.104-2.606-1.36-3.912a14.03 14.03 0 0 0 1.36-3.243M296.458 46.944c-.027.356-.05.708-.05 1.065 0 .82.076 1.637.22 2.448-.686 1.139-1.568 2.211-2.613 3.21a16.24 16.24 0 0 1-.12-1.871c0-.778.062-1.535.177-2.27.903-.76 1.7-1.628 2.386-2.582M294.45 45.782a14.139 14.139 0 0 0-1.04 3.361c-1.034.835-2.23 1.544-3.555 2.122.338-1.407.828-2.71 1.47-3.872a13.98 13.98 0 0 0 3.126-1.61M298.74 26.836c.644 1.293 1.107 2.605 1.363 3.91a14.162 14.162 0 0 0-1.363 3.244 14.002 14.002 0 0 0-1.36-3.243c.256-1.306.718-2.618 1.36-3.911M303.47 27.67c.07.63.12 1.26.12 1.871 0 .778-.063 1.535-.178 2.269-.904.76-1.7 1.625-2.388 2.58.028-.353.053-.709.053-1.063 0-.82-.079-1.637-.223-2.448.687-1.139 1.568-2.214 2.615-3.21M307.63 30.072c-.34 1.404-.828 2.706-1.47 3.872a13.931 13.931 0 0 0-3.128 1.61 14.117 14.117 0 0 0 1.043-3.362c1.032-.836 2.23-1.543 3.555-2.12"/>
        <path fill="#00ADEE" d="M32.955 34.971l-2.124 1.24c-1.49-2.416-3.766-3.624-6.83-3.624-1.771 0-3.39.394-4.854 1.183a8.649 8.649 0 0 0-3.432 3.29 8.756 8.756 0 0 0-1.237 4.511c0 1.417.308 2.687.923 3.808a6.357 6.357 0 0 0 2.592 2.588c1.114.604 2.427.906 3.941.906 1.55 0 3.03-.307 4.438-.924 1.408-.616 2.507-1.411 3.295-2.384l2.124 1.497c-1.33 1.454-2.775 2.516-4.333 3.189-1.558.671-3.366 1.007-5.423 1.007-3.178 0-5.657-.866-7.437-2.598-1.78-1.73-2.67-4.038-2.67-6.922 0-3.205 1.167-5.944 3.502-8.217 2.334-2.274 5.194-3.41 8.583-3.41 2.032 0 3.825.427 5.376 1.283 1.552.857 2.741 2.05 3.566 3.577M37.937 22.863h2.535L39.007 33.7c2.083-2.394 4.456-3.59 7.119-3.59 2.033 0 3.694.634 4.983 1.903 1.288 1.27 1.932 2.921 1.932 4.954 0 1.122-.129 2.633-.386 4.532l-1.249 9.24h-2.534l1.233-9.239c.25-1.863.371-3.342.365-4.44 0-1.38-.432-2.496-1.295-3.346-.863-.85-1.998-1.276-3.404-1.276-1.307 0-2.544.351-3.709 1.054a7.228 7.228 0 0 0-2.701 2.846c-.636 1.196-1.129 3.093-1.48 5.695l-1.177 8.706h-2.536l3.769-27.877zM65.34 48.892c1.656 0 3.166-.392 4.528-1.175 1.361-.783 2.441-1.909 3.24-3.377.797-1.468 1.196-3.065 1.196-4.791 0-2.08-.657-3.773-1.97-5.078-1.313-1.305-3.019-1.958-5.117-1.958-2.467 0-4.577.893-6.332 2.68-1.754 1.787-2.632 3.982-2.632 6.581 0 2.132.657 3.852 1.97 5.158 1.313 1.307 3.018 1.96 5.117 1.96zm9.893 1.848h-2.606l.398-3.023c-2.323 2.36-4.981 3.54-7.974 3.54-2.724 0-4.962-.88-6.717-2.642-1.754-1.763-2.63-4.03-2.63-6.803 0-3.205 1.143-5.956 3.43-8.255 2.287-2.298 4.978-3.447 8.073-3.447 1.677 0 3.147.35 4.41 1.052 1.265.7 2.328 1.796 3.19 3.285l.464-3.82h2.681L75.233 50.74zM80.994 30.627h2.592l-.35 2.531c.69-.96 1.522-1.708 2.497-2.245.974-.535 1.973-.803 2.997-.803.727 0 1.486.172 2.275.517l-1.219 2.366c-.64-.258-1.175-.388-1.605-.388-.898 0-1.787.315-2.666.943-.88.63-1.592 1.544-2.14 2.746-.547 1.202-1.01 3.178-1.39 5.927l-1.174 8.52h-2.536l2.719-20.114zM100.937 32.569a9.466 9.466 0 0 0-4.692 1.21c-1.444.808-2.563 1.901-3.355 3.282-.793 1.38-1.19 2.927-1.19 4.64 0 1.971.627 3.561 1.881 4.769 1.254 1.208 2.938 1.812 5.052 1.812 2.556 0 4.68-.839 6.37-2.514 1.69-1.676 2.535-3.789 2.535-6.34 0-2.243-.688-3.947-2.065-5.113-1.377-1.164-2.889-1.746-4.536-1.746zm7.66-1.942h2.525l-2.302 17.026c-.37 2.748-.819 4.671-1.348 5.767-.726 1.517-1.933 2.761-3.62 3.734-1.687.974-3.681 1.462-5.984 1.462-2.266 0-4.196-.463-5.79-1.388-1.595-.923-2.804-2.261-3.63-4.01l2.31-.832c1.404 2.551 3.774 3.826 7.11 3.826 1.76 0 3.284-.358 4.57-1.072 1.287-.715 2.207-1.634 2.762-2.755.332-.678.67-2.151 1.015-4.418l.108-.784c-2.174 2.371-4.825 3.557-7.953 3.557-2.772 0-5.001-.847-6.688-2.541-1.688-1.695-2.531-3.898-2.531-6.61 0-1.996.513-3.872 1.54-5.628 1.026-1.756 2.44-3.17 4.242-4.243 1.801-1.072 3.63-1.608 5.487-1.608 1.55 0 2.963.348 4.242 1.044 1.279.696 2.415 1.796 3.41 3.3l.524-3.827zM130.79 38.946c-.074-1.892-.72-3.425-1.94-4.599-1.22-1.173-2.753-1.76-4.601-1.76-2.008 0-3.778.565-5.312 1.695-1.533 1.131-2.62 2.686-3.262 4.664h15.115zm2.365 2.255h-17.922c-.037 2.391.585 4.27 1.866 5.639 1.28 1.368 2.986 2.052 5.118 2.052 1.416 0 2.728-.29 3.935-.87a8.03 8.03 0 0 0 2.994-2.44l1.92 1.572c-.972 1.245-2.244 2.24-3.815 2.985-1.57.747-3.267 1.119-5.09 1.119-3.153 0-5.522-.976-7.104-2.93-1.583-1.954-2.375-4.15-2.375-6.59 0-1.997.534-3.92 1.6-5.768 1.064-1.849 2.49-3.287 4.276-4.317a11.43 11.43 0 0 1 5.802-1.543c2.574 0 4.705.872 6.393 2.616 1.687 1.744 2.531 3.965 2.531 6.664 0 .493-.043 1.097-.129 1.811z"/>
        <path fill="#00A550" d="M137.696 30.627h2.528l-.38 2.849a8.143 8.143 0 0 1 2.986-2.469c1.211-.598 2.429-.897 3.653-.897 1.52 0 2.868.45 4.042 1.35.903.702 1.577 1.75 2.022 3.142.914-1.43 2.043-2.535 3.384-3.318 1.341-.783 2.704-1.174 4.09-1.174 1.866 0 3.399.598 4.598 1.792 1.2 1.195 1.8 2.74 1.8 4.637 0 .862-.082 1.916-.243 3.164l-1.429 11.037h-2.536l1.305-9.65c.273-2.02.41-3.5.41-4.436 0-1.17-.385-2.138-1.156-2.902-.77-.764-1.783-1.147-3.04-1.147-1.331 0-2.569.415-3.715 1.247-1.146.831-1.96 1.813-2.44 2.946-.481 1.133-.842 2.563-1.08 4.293l-1.333 9.65h-2.568l1.492-11.035c.158-1.172.237-2.134.237-2.886 0-1.293-.384-2.329-1.154-3.106-.771-.776-1.777-1.164-3.019-1.164a6.528 6.528 0 0 0-3 .73c-.956.487-1.738 1.124-2.346 1.914-.61.787-1.063 1.764-1.363 2.93a27.341 27.341 0 0 0-.637 3.151l-1.262 9.465h-2.565l2.719-20.113zM178.658 48.892c1.656 0 3.166-.392 4.529-1.175 1.361-.783 2.44-1.909 3.239-3.377.797-1.468 1.197-3.065 1.197-4.791 0-2.08-.657-3.773-1.97-5.078-1.314-1.305-3.02-1.958-5.117-1.958-2.467 0-4.577.893-6.332 2.68-1.755 1.787-2.632 3.982-2.632 6.581 0 2.132.657 3.852 1.969 5.158 1.313 1.307 3.018 1.96 5.117 1.96zm9.894 1.848h-2.606l.398-3.023c-2.324 2.36-4.982 3.54-7.975 3.54-2.724 0-4.962-.88-6.716-2.642-1.754-1.763-2.631-4.03-2.631-6.803 0-3.205 1.143-5.956 3.43-8.255 2.288-2.298 4.979-3.447 8.074-3.447 1.676 0 3.146.35 4.41 1.052 1.265.7 2.327 1.796 3.189 3.285l.465-3.82h2.68l-2.718 20.113zM204.698 32.883l-1.404 2.088c-1.135-1.613-2.478-2.421-4.031-2.421-.887 0-1.646.29-2.274.868-.629.58-.943 1.221-.943 1.923 0 .543.19 1.061.573 1.553.37.494 1.213 1.165 2.532 2.015 1.92 1.245 3.19 2.33 3.806 3.254.603.937.905 2.015.905 3.235 0 1.689-.59 3.087-1.765 4.196-1.177 1.11-2.709 1.664-4.593 1.664-2.49 0-4.585-1.103-6.285-3.309l1.57-1.83c1.492 1.811 3.112 2.717 4.863 2.717.998 0 1.866-.35 2.607-1.054.739-.702 1.108-1.515 1.108-2.44 0-.751-.277-1.472-.83-2.163-.358-.443-1.32-1.195-2.883-2.256-1.688-1.16-2.795-2.12-3.326-2.885a4.323 4.323 0 0 1-.795-2.55c0-1.491.561-2.76 1.682-3.807 1.121-1.047 2.539-1.57 4.252-1.57 1.01 0 1.925.202 2.745.609.819.407 1.648 1.128 2.486 2.163M211.322 23.103h2.53l-1 7.524h4.047l-.296 2.256h-4.052l-2.378 17.857h-2.586L210 32.883h-3.448l.314-2.256h3.44zM234.777 38.946c-.074-1.892-.72-3.425-1.94-4.599-1.22-1.173-2.753-1.76-4.601-1.76-2.008 0-3.778.565-5.312 1.695-1.533 1.131-2.62 2.686-3.261 4.664h15.114zm2.365 2.255H219.22c-.037 2.391.585 4.27 1.866 5.639 1.28 1.368 2.986 2.052 5.118 2.052 1.416 0 2.728-.29 3.935-.87a8.027 8.027 0 0 0 2.994-2.44l1.921 1.572c-.973 1.245-2.245 2.24-3.816 2.985-1.57.747-3.267 1.119-5.09 1.119-3.153 0-5.521-.976-7.104-2.93-1.583-1.954-2.375-4.15-2.375-6.59 0-1.997.534-3.92 1.6-5.768 1.064-1.849 2.49-3.287 4.276-4.317a11.43 11.43 0 0 1 5.802-1.543c2.574 0 4.705.872 6.393 2.616 1.688 1.744 2.532 3.965 2.532 6.664 0 .493-.044 1.097-.13 1.811zM240.74 30.627h2.593l-.35 2.531c.69-.96 1.522-1.708 2.497-2.245.974-.535 1.973-.803 2.997-.803.727 0 1.485.172 2.275.517l-1.219 2.366c-.64-.258-1.175-.388-1.606-.388-.897 0-1.786.315-2.665.943-.88.63-1.593 1.544-2.14 2.746-.547 1.202-1.01 3.178-1.39 5.927l-1.175 8.52h-2.535l2.719-20.114zM3.865 21.57c-2.33-.005-2.33 2.722-2.332 3.231 0 .54-.008 3.072 2.242 3.072 1.876.004 2.357-1.828 2.36-3.148 0-.797-.167-3.154-2.27-3.154zm-2.304.355c.21-.366.807-1.388 2.665-1.388.794 0 1.818.196 2.559 1.036.39.48.946 1.287.942 3.066 0 1.56-.375 2.422-.785 2.94-.645.94-1.726 1.398-2.84 1.398-.388 0-1.117-.041-1.817-.52a2.494 2.494 0 0 1-.779-.828l-.029 1.235L0 28.859l.033-1.45.02-10.222 1.517.006-.01 4.732zM12.476 28.068c.39 0 1.188-.078 1.7-.79.588-.79.669-1.95.671-2.537.005-1.444-.424-2.977-2.22-2.98-2.424-.002-2.426 2.567-2.426 3.293 0 .99.139 3.012 2.275 3.014zM8.742 22.08c0-.357-.01-.545-.04-1.323h1.53l.033 1.34c.76-1.271 2.107-1.471 2.763-1.467 1.745.004 3.412 1.202 3.403 4.214-.003 3.029-1.764 4.344-3.705 4.34-1.175-.004-2.055-.502-2.488-1.214l-.005 4.019H8.72l.021-9.91z"/>
    </g>
</svg>
