<svg xmlns="http://www.w3.org/2000/svg" xmlns:xlink="http://www.w3.org/1999/xlink" width="23" height="23" viewBox="0 0 23 23">
    <defs>
        <path id="a" d="M0 .055h22.942v22.121H0z"/>
        <path id="c" d="M5.156.055C2.319.055 0 2.273 0 5.027v12.178c0 2.735 2.3 4.971 5.156 4.971h12.63v-.018c2.837 0 5.156-2.218 5.156-4.971V5.027c0-2.735-2.3-4.972-5.155-4.972H5.156z"/>
    </defs>
    <g fill="none" fill-rule="evenodd">
        <g transform="translate(0 .13)">
            <mask id="b" fill="#fff">
                <use xlink:href="#a"/>
            </mask>
            <path fill="#FFF" d="M17.787 22.158c2.836 0 5.155-2.218 5.155-4.971V5.027c0-2.735-2.3-4.972-5.155-4.972H5.156C2.319.055 0 2.273 0 5.027v12.178c0 2.735 2.3 4.971 5.156 4.971h12.63v-.018z" mask="url(#b)"/>
        </g>
        <g transform="translate(0 .13)">
            <mask id="d" fill="#fff">
                <use xlink:href="#c"/>
            </mask>
            <path fill="#00AEEF" d="M.02 22.158h22.903V.055H.02z" mask="url(#d)"/>
        </g>
        <g fill="#FFF">
            <path d="M18.247 5.1l-2.895 2.846c.345.426.595.924.71 1.479l3.105-3.05a6.07 6.07 0 0 0-.92-1.274M14.777 7.355l2.875-2.827a7.29 7.29 0 0 0-1.245-.85s-.02 0-.02-.019L13.36 6.634c.537.148.997.388 1.418.721"/>
            <path d="M16.196 10.478c0 1.479-.46 2.772-1.38 3.9-.92 1.127-2.243 1.7-3.987 1.7-1.226 0-2.223-.37-2.951-1.109-.729-.74-1.112-1.719-1.112-2.938 0-1.368.46-2.643 1.36-3.807.902-1.165 2.205-1.756 3.91-1.756.097 0 .211 0 .307.019l3.24-3.198c-.997-.406-2.09-.61-3.259-.61-2.587 0-4.83.906-6.766 2.717-1.935 1.811-2.913 4.066-2.913 6.801 0 2.273.71 4.103 2.147 5.507 1.437 1.405 3.354 2.107 5.75 2.107 2.76 0 5.079-.887 6.957-2.68 1.879-1.792 2.818-3.936 2.818-6.486 0-1.276-.23-2.44-.71-3.512l-3.411 3.345z"/>
        </g>
    </g>
</svg>
