<svg xmlns="http://www.w3.org/2000/svg" xmlns:xlink="http://www.w3.org/1999/xlink" width="24" height="24" viewBox="0 0 24 24">
    <defs>
        <path id="a" d="M8.125 17.5v-1.375h5.5V17.5h-5.5zm11 3.438V7.874h-2.984a2.515 2.515 0 0 1-2.516-2.53v-2.97H6.062a.688.688 0 0 0-.687.688v17.875c0 .379.308.687.688.687h12.375c.379 0 .687-.308.687-.688zM15 2.965v2.379c0 .633.509 1.147 1.141 1.155h2.393L15 2.966zm5.033 3.094c.298.3.465.705.467 1.128v13.75A2.063 2.063 0 0 1 18.437 23H6.063A2.063 2.063 0 0 1 4 20.937V3.063C4 1.925 4.924 1 6.063 1h8.25c.416 0 .815.163 1.114.454l4.606 4.606zM8.125 12v-1.375h8.25V12h-8.25zm0 2.75v-1.375h8.25v1.375h-8.25z"/>
    </defs>
    <g fill="none" fill-rule="evenodd">
        <mask id="b" fill="#fff">
            <use xlink:href="#a"/>
        </mask>
        <g fill="#06aeef" mask="url(#b)">
            <path d="M0 0h24v24H0z"/>
        </g>
    </g>
</svg>
