<svg xmlns="http://www.w3.org/2000/svg" width="81" height="81" viewBox="0 0 81 81">
    <g fill="none" fill-rule="nonzero">
        <circle cx="40.399" cy="40.399" r="40.399" fill="#F0EFF1"/>
        <circle cx="40.063" cy="41.285" r="31.772" fill="#2AA7DF"/>
        <rect width="41.717" height="16.81" x="18.618" y="32.863" fill="#616465" rx="2.761"/>
        <path fill="#86B82D" d="M28.143 47.077h-5.967a.716.716 0 0 1-.716-.716V36.174a.716.716 0 0 1 .716-.716h5.967c.034 0 .062.028.062.062v11.495a.062.062 0 0 1-.062.062z"/>
        <path fill="#FFF" d="M50.811 47.049h5.967c.395 0 .716-.32.716-.716V36.208a.716.716 0 0 0-.716-.715h-5.967a.062.062 0 0 0-.062.064v11.435c.004.032.03.056.062.057z"/>
        <path fill="#86B82D" d="M28.743 35.486h6.745v11.563h-6.745zM36.027 35.486h6.745v11.563h-6.745zM43.321 35.486h6.745v11.563h-6.745z"/>
        <path fill="#FFF" d="M26.507 41.241c.003.324-.032.648-.106.964-.06.267-.168.52-.32.748a1.53 1.53 0 0 1-.534.483 1.71 1.71 0 0 1-1.422.03 1.316 1.316 0 0 1-.518-.428 2.037 2.037 0 0 1-.331-.736 4.206 4.206 0 0 1-.117-1.061 4.04 4.04 0 0 1 .108-.964c.06-.268.168-.522.32-.75a1.51 1.51 0 0 1 .534-.484 1.717 1.717 0 0 1 1.42-.032c.206.098.385.246.52.43.156.223.268.474.33.74.082.347.121.703.116 1.06zm-2.727-.02v.23c0 .073 0 .142.014.211l1.949-1.443a1.84 1.84 0 0 0-.134-.327 1.045 1.045 0 0 0-.195-.255.812.812 0 0 0-.58-.23.835.835 0 0 0-.437.117.948.948 0 0 0-.332.348 1.84 1.84 0 0 0-.211.57 3.631 3.631 0 0 0-.074.778zm2.108.04v-.23c0-.07-.014-.156-.02-.23l-1.95 1.448c.034.116.079.23.133.338.051.1.118.19.198.267a.828.828 0 0 0 .26.173.89.89 0 0 0 .769-.056c.137-.086.252-.204.334-.345.1-.177.17-.369.21-.568.05-.262.073-.53.066-.796zM33.79 41.65c.004.325-.032.649-.106.965-.059.267-.168.52-.32.748a1.53 1.53 0 0 1-.534.483c-.232.117-.49.176-.75.17a1.61 1.61 0 0 1-.672-.138 1.355 1.355 0 0 1-.518-.428 2.071 2.071 0 0 1-.33-.739 4.206 4.206 0 0 1-.118-1.06 4.04 4.04 0 0 1 .108-.965c.06-.267.169-.521.32-.75a1.51 1.51 0 0 1 .534-.483 1.58 1.58 0 0 1 .747-.17 1.56 1.56 0 0 1 .672.14c.208.096.387.244.52.43.156.223.269.473.332.737.082.347.12.704.115 1.06zm-2.725-.018v.23c0 .074 0 .145.014.212l1.95-1.44a1.855 1.855 0 0 0-.134-.33 1.045 1.045 0 0 0-.196-.255.812.812 0 0 0-.58-.23.835.835 0 0 0-.437.117.966.966 0 0 0-.331.348 1.86 1.86 0 0 0-.212.57 3.661 3.661 0 0 0-.074.778zm2.108.044v-.23l-.02-.23-1.95 1.447c.034.117.079.23.134.338.049.096.112.184.189.26a.828.828 0 0 0 .26.173.89.89 0 0 0 .768-.055.964.964 0 0 0 .334-.345c.1-.177.17-.37.21-.569.052-.26.077-.524.073-.79h.002zM41.08 42.067c.002.324-.033.648-.106.964-.06.267-.17.52-.322.746a1.468 1.468 0 0 1-.534.483 1.546 1.546 0 0 1-.748.17 1.61 1.61 0 0 1-.674-.138 1.316 1.316 0 0 1-.518-.428 2.156 2.156 0 0 1-.331-.736 4.239 4.239 0 0 1-.115-1.06c-.004-.326.032-.65.106-.967.06-.267.17-.52.322-.748a1.45 1.45 0 0 1 .534-.484c.23-.118.486-.178.745-.172a1.61 1.61 0 0 1 .674.14c.207.097.386.245.518.43.156.224.267.474.33.74.084.346.124.703.119 1.06zm-2.73-.02v.216c.001.07.005.141.012.211l1.95-1.44a1.562 1.562 0 0 0-.134-.33 1.13 1.13 0 0 0-.193-.255.824.824 0 0 0-.583-.225.83.83 0 0 0-.435.115.971.971 0 0 0-.333.347c-.1.178-.172.37-.212.571-.051.26-.075.525-.071.79zm2.109.04v-.23c0-.07-.012-.154-.019-.23l-1.949 1.45c.032.117.077.23.134.339.05.098.116.187.195.264a.778.778 0 0 0 .26.173c.106.043.22.064.334.062a.842.842 0 0 0 .435-.115.983.983 0 0 0 .333-.345c.1-.178.172-.37.212-.571.05-.262.071-.53.065-.796zM48.434 42.479c.004.324-.032.648-.106.964-.06.267-.168.52-.32.748-.136.2-.32.366-.533.481-.447.218-.966.23-1.422.032a1.34 1.34 0 0 1-.52-.428 2.094 2.094 0 0 1-.33-.736 4.218 4.218 0 0 1-.117-1.061c-.003-.325.034-.65.108-.966.06-.267.17-.52.32-.748.136-.203.32-.369.534-.484.231-.118.488-.177.748-.17.231-.003.46.044.672.138.206.098.385.246.52.43.158.224.272.475.336.741.08.347.117.703.11 1.059zm-2.727-.02v.23c0 .07 0 .142.014.211l1.95-1.443a1.678 1.678 0 0 0-.136-.326.983.983 0 0 0-.194-.256.805.805 0 0 0-.58-.228.856.856 0 0 0-.437.115.966.966 0 0 0-.331.348c-.101.177-.173.37-.212.57a3.668 3.668 0 0 0-.074.778zm2.108.04v-.23l-.02-.23-1.95 1.45c.035.117.08.23.134.338.052.099.117.189.196.267a.865.865 0 0 0 .262.173.92.92 0 0 0 .769-.055c.137-.087.252-.205.333-.345.1-.178.17-.371.21-.571.051-.262.073-.53.066-.796z"/>
        <path fill="#1B1B1A" d="M53.08 47.049V46.619c-.004-.265.021-.53.074-.79.04-.2.11-.393.212-.57a.957.957 0 0 1 .331-.345.842.842 0 0 1 1.017.11c.078.074.143.16.193.255.057.104.103.214.136.327l-1.935 1.432h.92l1.137-.845c0 .074.014.152.02.23.008.078 0 .159 0 .23 0 .134 0 .258-.013.378h.617c.011-.13.018-.26.018-.398a4.338 4.338 0 0 0-.115-1.061 2.108 2.108 0 0 0-.334-.739 1.342 1.342 0 0 0-.517-.43 1.61 1.61 0 0 0-.672-.138 1.58 1.58 0 0 0-.748.17c-.215.115-.398.28-.534.483a2.26 2.26 0 0 0-.32.748c-.074.317-.11.641-.108.967 0 .14 0 .271.016.398l.605.018zM54.622 35.486H53.06l-.447.235.226.522 1.102-.598v3.362h-1.183v.57h2.893v-.57h-1.029z"/>
        <rect width="4.094" height="8.135" x="58.826" y="37.532" fill="#616465" rx="1.197"/>
    </g>
</svg>
