<svg xmlns="http://www.w3.org/2000/svg" width="81" height="81" viewBox="0 0 81 81">
    <g fill="none" fill-rule="nonzero">
        <circle cx="40.399" cy="40.399" r="40.399" fill="#F0EFF1"/>
        <circle cx="40.063" cy="41.285" r="31.772" fill="#57B7C9"/>
        <rect width="8.261" height="3.44" x="36.213" y="33.85" fill="#1B1B1A" rx=".329"/>
        <rect width="13.024" height="11.441" x="33.887" y="36.952" fill="#FFF" rx="2.761"/>
        <rect width="9.612" height="12.601" x="35.539" y="43.961" fill="#FFF" rx="2.761"/>
        <rect width="2.262" height="5.072" x="39.267" y="39.892" fill="#1B1B1A" rx="1.038"/>
        <path fill="#1B1B1A" d="M44.15 36.952h-3.751v19.61h1.99a2.761 2.761 0 0 0 2.762-2.761V48.2a2.761 2.761 0 0 0 1.76-2.568v-5.919a2.761 2.761 0 0 0-2.761-2.761z" opacity=".15"/>
        <path fill="#1B9DDC" d="M41.736 73.047l-2.674.012V56.562h2.674z"/>
        <path fill="#1B84C2" d="M41.736 73.047l-1.365.012V56.562h1.365z"/>
        <path fill="#FDDB09" d="M39.152 30.398a.292.292 0 0 1-.109-.014.405.405 0 0 1-.303-.428l.23-4.262h-1.307a.412.412 0 0 1-.318-.151.46.46 0 0 1-.094-.346l1.03-5.775a.423.423 0 0 1 .413-.343h3.187c.129 0 .25.06.329.163.084.1.11.236.069.36l-.628 2.517h1.43c.147.002.282.079.358.204.08.12.085.275.013.4l-3.932 7.454a.435.435 0 0 1-.368.221z"/>
    </g>
</svg>
